<svg width="86" height="85" viewBox="0 0 86 85" fill="none" xmlns="http://www.w3.org/2000/svg">
<path d="M26.8755 2.65617C26.8755 2.16653 26.4742 1.77075 25.9797 1.77075H2.68804C2.19354 1.77075 1.79221 2.16653 1.79221 2.65617V39.8437C1.79221 40.3333 2.19354 40.7291 2.68804 40.7291H25.9797C26.4742 40.7291 26.8755 40.3333 26.8755 39.8437V6.19784C26.8755 5.7082 26.4742 5.31242 25.9797 5.31242C25.4852 5.31242 25.0839 5.7082 25.0839 6.19784V38.9583H3.58387V3.54159H25.9797C26.4742 3.54159 26.8755 3.1458 26.8755 2.65617Z" fill="#8C8C8C"/>
<path d="M54.6453 1.77075H31.3536C30.8591 1.77075 30.4578 2.16653 30.4578 2.65617V39.8437C30.4578 40.3333 30.8591 40.7291 31.3536 40.7291H54.6453C55.1398 40.7291 55.5411 40.3333 55.5411 39.8437V15.9374C55.5411 15.4478 55.1398 15.052 54.6453 15.052C54.1508 15.052 53.7495 15.4478 53.7495 15.9374V38.9583H32.2495V3.54159H53.7495V8.85409C53.7495 9.34372 54.1508 9.7395 54.6453 9.7395C55.1398 9.7395 55.5411 9.34372 55.5411 8.85409V2.65617C55.5411 2.16653 55.1398 1.77075 54.6453 1.77075Z" fill="#8C8C8C"/>
<path d="M83.3125 1.77075H60.0208C59.5263 1.77075 59.125 2.16653 59.125 2.65617V39.8437C59.125 40.3333 59.5263 40.7291 60.0208 40.7291H83.3125C83.807 40.7291 84.2083 40.3333 84.2083 39.8437V2.65617C84.2083 2.16653 83.807 1.77075 83.3125 1.77075ZM82.4167 38.9583H60.9167V3.54159H82.4167V38.9583Z" fill="#8C8C8C"/>
<path d="M8.95813 17.7084H19.7081C20.0244 17.7084 20.3173 17.5428 20.4785 17.2754C20.6398 17.0062 20.6461 16.6733 20.4947 16.3997L15.1197 6.66015C14.8052 6.09082 13.861 6.09082 13.5466 6.66015L8.17159 16.3997C8.02019 16.6742 8.02646 17.0071 8.18771 17.2754C8.34896 17.5428 8.6419 17.7084 8.95813 17.7084ZM14.3331 8.93213L18.1986 15.9375H10.4667L14.3331 8.93213Z" fill="#8C8C8C"/>
<path d="M47.4792 16.823C47.9737 16.823 48.375 16.4272 48.375 15.9376V7.08341C48.375 6.59378 47.9737 6.198 47.4792 6.198H38.5208C38.0263 6.198 37.625 6.59378 37.625 7.08341V15.9376C37.625 16.4272 38.0263 16.823 38.5208 16.823H47.4792ZM39.4167 7.96883H46.5833V15.0522H39.4167V7.96883Z" fill="#8C8C8C"/>
<path d="M71.6672 16.823C74.6315 16.823 77.0422 14.4403 77.0422 11.5105C77.0422 8.58065 74.6315 6.198 71.6672 6.198C68.7029 6.198 66.2922 8.58065 66.2922 11.5105C66.2922 14.4403 68.7029 16.823 71.6672 16.823ZM71.6672 7.96883C73.6434 7.96883 75.2505 9.55727 75.2505 11.5105C75.2505 13.4637 73.6434 15.0522 71.6672 15.0522C69.691 15.0522 68.0839 13.4637 68.0839 11.5105C68.0839 9.55727 69.691 7.96883 71.6672 7.96883Z" fill="#8C8C8C"/>
<path d="M20.6047 20.3645H8.06304C7.56854 20.3645 7.16721 20.7603 7.16721 21.2499C7.16721 21.7396 7.56854 22.1353 8.06304 22.1353H20.6047C21.0992 22.1353 21.5005 21.7396 21.5005 21.2499C21.5005 20.7603 21.0992 20.3645 20.6047 20.3645Z" fill="#8C8C8C"/>
<path d="M20.6047 24.7917H8.06304C7.56854 24.7917 7.16721 25.1875 7.16721 25.6772C7.16721 26.1668 7.56854 26.5626 8.06304 26.5626H20.6047C21.0992 26.5626 21.5005 26.1668 21.5005 25.6772C21.5005 25.1875 21.0992 24.7917 20.6047 24.7917Z" fill="#8C8C8C"/>
<path d="M20.6047 29.2188H8.06304C7.56854 29.2188 7.16721 29.6145 7.16721 30.1042C7.16721 30.5938 7.56854 30.9896 8.06304 30.9896H20.6047C21.0992 30.9896 21.5005 30.5938 21.5005 30.1042C21.5005 29.6145 21.0992 29.2188 20.6047 29.2188Z" fill="#8C8C8C"/>
<path d="M20.6047 33.6458H8.06304C7.56854 33.6458 7.16721 34.0415 7.16721 34.5312C7.16721 35.0208 7.56854 35.4166 8.06304 35.4166H20.6047C21.0992 35.4166 21.5005 35.0208 21.5005 34.5312C21.5005 34.0415 21.0992 33.6458 20.6047 33.6458Z" fill="#8C8C8C"/>
<path d="M49.2703 20.3645H36.7286C36.2341 20.3645 35.8328 20.7603 35.8328 21.2499C35.8328 21.7396 36.2341 22.1353 36.7286 22.1353H49.2703C49.7648 22.1353 50.1661 21.7396 50.1661 21.2499C50.1661 20.7603 49.7648 20.3645 49.2703 20.3645Z" fill="#8C8C8C"/>
<path d="M49.2703 24.7917H36.7286C36.2341 24.7917 35.8328 25.1875 35.8328 25.6772C35.8328 26.1668 36.2341 26.5626 36.7286 26.5626H49.2703C49.7648 26.5626 50.1661 26.1668 50.1661 25.6772C50.1661 25.1875 49.7648 24.7917 49.2703 24.7917Z" fill="#8C8C8C"/>
<path d="M49.2703 29.2188H36.7286C36.2341 29.2188 35.8328 29.6145 35.8328 30.1042C35.8328 30.5938 36.2341 30.9896 36.7286 30.9896H49.2703C49.7648 30.9896 50.1661 30.5938 50.1661 30.1042C50.1661 29.6145 49.7648 29.2188 49.2703 29.2188Z" fill="#8C8C8C"/>
<path d="M49.2703 33.6458H36.7286C36.2341 33.6458 35.8328 34.0415 35.8328 34.5312C35.8328 35.0208 36.2341 35.4166 36.7286 35.4166H49.2703C49.7648 35.4166 50.1661 35.0208 50.1661 34.5312C50.1661 34.0415 49.7648 33.6458 49.2703 33.6458Z" fill="#8C8C8C"/>
<path d="M65.3958 22.1353H77.9375C78.432 22.1353 78.8333 21.7396 78.8333 21.2499C78.8333 20.7603 78.432 20.3645 77.9375 20.3645H65.3958C64.9013 20.3645 64.5 20.7603 64.5 21.2499C64.5 21.7396 64.9013 22.1353 65.3958 22.1353Z" fill="#8C8C8C"/>
<path d="M65.3958 26.5626H77.9375C78.432 26.5626 78.8333 26.1668 78.8333 25.6772C78.8333 25.1875 78.432 24.7917 77.9375 24.7917H65.3958C64.9013 24.7917 64.5 25.1875 64.5 25.6772C64.5 26.1668 64.9013 26.5626 65.3958 26.5626Z" fill="#8C8C8C"/>
<path d="M65.3958 30.9896H77.9375C78.432 30.9896 78.8333 30.5938 78.8333 30.1042C78.8333 29.6145 78.432 29.2188 77.9375 29.2188H65.3958C64.9013 29.2188 64.5 29.6145 64.5 30.1042C64.5 30.5938 64.9013 30.9896 65.3958 30.9896Z" fill="#8C8C8C"/>
<path d="M65.3958 35.4166H77.9375C78.432 35.4166 78.8333 35.0208 78.8333 34.5312C78.8333 34.0415 78.432 33.6458 77.9375 33.6458H65.3958C64.9013 33.6458 64.5 34.0415 64.5 34.5312C64.5 35.0208 64.9013 35.4166 65.3958 35.4166Z" fill="#8C8C8C"/>
<path d="M25.9797 44.2708H2.68804C2.19354 44.2708 1.79221 44.6665 1.79221 45.1562V82.3437C1.79221 82.8333 2.19354 83.2291 2.68804 83.2291H25.9797C26.4742 83.2291 26.8755 82.8333 26.8755 82.3437V45.1562C26.8755 44.6665 26.4742 44.2708 25.9797 44.2708ZM25.0839 81.4582H3.58387V46.0416H25.0839V81.4582Z" fill="#8C8C8C"/>
<path d="M54.6453 44.2708H31.3536C30.8591 44.2708 30.4578 44.6665 30.4578 45.1562V70.8332C30.4578 71.3229 30.8591 71.7187 31.3536 71.7187C31.8481 71.7187 32.2495 71.3229 32.2495 70.8332V46.0416H53.7495V81.4582H32.2495V74.3749C32.2495 73.8853 31.8481 73.4895 31.3536 73.4895C30.8591 73.4895 30.4578 73.8853 30.4578 74.3749V82.3437C30.4578 82.8333 30.8591 83.2291 31.3536 83.2291H54.6453C55.1398 83.2291 55.5411 82.8333 55.5411 82.3437V45.1562C55.5411 44.6665 55.1398 44.2708 54.6453 44.2708Z" fill="#8C8C8C"/>
<path d="M83.3125 44.2708H60.0208C59.5263 44.2708 59.125 44.6665 59.125 45.1562V82.3437C59.125 82.8333 59.5263 83.2291 60.0208 83.2291H83.3125C83.807 83.2291 84.2083 82.8333 84.2083 82.3437V45.1562C84.2083 44.6665 83.807 44.2708 83.3125 44.2708ZM82.4167 81.4582H60.9167V46.0416H82.4167V81.4582Z" fill="#8C8C8C"/>
<path d="M8.06304 64.6353H20.6047C21.0992 64.6353 21.5005 64.2396 21.5005 63.7499C21.5005 63.2603 21.0992 62.8645 20.6047 62.8645H8.06304C7.56854 62.8645 7.16721 63.2603 7.16721 63.7499C7.16721 64.2396 7.56854 64.6353 8.06304 64.6353Z" fill="#8C8C8C"/>
<path d="M8.06304 69.0626H20.6047C21.0992 69.0626 21.5005 68.6668 21.5005 68.1772C21.5005 67.6875 21.0992 67.2917 20.6047 67.2917H8.06304C7.56854 67.2917 7.16721 67.6875 7.16721 68.1772C7.16721 68.6668 7.56854 69.0626 8.06304 69.0626Z" fill="#8C8C8C"/>
<path d="M8.06304 73.4896H20.6047C21.0992 73.4896 21.5005 73.0938 21.5005 72.6042C21.5005 72.1145 21.0992 71.7188 20.6047 71.7188H8.06304C7.56854 71.7188 7.16721 72.1145 7.16721 72.6042C7.16721 73.0938 7.56854 73.4896 8.06304 73.4896Z" fill="#8C8C8C"/>
<path d="M8.06304 77.9166H20.6047C21.0992 77.9166 21.5005 77.5208 21.5005 77.0312C21.5005 76.5415 21.0992 76.1458 20.6047 76.1458H8.06304C7.56854 76.1458 7.16721 76.5415 7.16721 77.0312C7.16721 77.5208 7.56854 77.9166 8.06304 77.9166Z" fill="#8C8C8C"/>
<path d="M36.7286 64.6353H49.2703C49.7648 64.6353 50.1661 64.2396 50.1661 63.7499C50.1661 63.2603 49.7648 62.8645 49.2703 62.8645H36.7286C36.2341 62.8645 35.8328 63.2603 35.8328 63.7499C35.8328 64.2396 36.2341 64.6353 36.7286 64.6353Z" fill="#8C8C8C"/>
<path d="M36.7286 69.0626H49.2703C49.7648 69.0626 50.1661 68.6668 50.1661 68.1772C50.1661 67.6875 49.7648 67.2917 49.2703 67.2917H36.7286C36.2341 67.2917 35.8328 67.6875 35.8328 68.1772C35.8328 68.6668 36.2341 69.0626 36.7286 69.0626Z" fill="#8C8C8C"/>
<path d="M36.7286 73.4896H49.2703C49.7648 73.4896 50.1661 73.0938 50.1661 72.6042C50.1661 72.1145 49.7648 71.7188 49.2703 71.7188H36.7286C36.2341 71.7188 35.8328 72.1145 35.8328 72.6042C35.8328 73.0938 36.2341 73.4896 36.7286 73.4896Z" fill="#8C8C8C"/>
<path d="M36.7286 77.9166H49.2703C49.7648 77.9166 50.1661 77.5208 50.1661 77.0312C50.1661 76.5415 49.7648 76.1458 49.2703 76.1458H36.7286C36.2341 76.1458 35.8328 76.5415 35.8328 77.0312C35.8328 77.5208 36.2341 77.9166 36.7286 77.9166Z" fill="#8C8C8C"/>
<path d="M65.3958 64.6353H77.9375C78.432 64.6353 78.8333 64.2396 78.8333 63.7499C78.8333 63.2603 78.432 62.8645 77.9375 62.8645H65.3958C64.9013 62.8645 64.5 63.2603 64.5 63.7499C64.5 64.2396 64.9013 64.6353 65.3958 64.6353Z" fill="#8C8C8C"/>
<path d="M65.3958 69.0626H77.9375C78.432 69.0626 78.8333 68.6668 78.8333 68.1772C78.8333 67.6875 78.432 67.2917 77.9375 67.2917H65.3958C64.9013 67.2917 64.5 67.6875 64.5 68.1772C64.5 68.6668 64.9013 69.0626 65.3958 69.0626Z" fill="#8C8C8C"/>
<path d="M65.3958 73.4896H77.9375C78.432 73.4896 78.8333 73.0938 78.8333 72.6042C78.8333 72.1145 78.432 71.7188 77.9375 71.7188H65.3958C64.9013 71.7188 64.5 72.1145 64.5 72.6042C64.5 73.0938 64.9013 73.4896 65.3958 73.4896Z" fill="#8C8C8C"/>
<path d="M65.3958 77.9166H67.1875C67.682 77.9166 68.0833 77.5208 68.0833 77.0312C68.0833 76.5415 67.682 76.1458 67.1875 76.1458H65.3958C64.9013 76.1458 64.5 76.5415 64.5 77.0312C64.5 77.5208 64.9013 77.9166 65.3958 77.9166Z" fill="#8C8C8C"/>
<path d="M13.6999 59.0635C13.8746 59.2362 14.104 59.323 14.3333 59.323C14.5626 59.323 14.792 59.2362 14.9666 59.0635L19.4458 54.6365C19.7961 54.2903 19.7961 53.7307 19.4458 53.3845L14.9666 48.9574C14.6164 48.6112 14.0502 48.6112 13.6999 48.9574L9.22077 53.3845C8.8705 53.7307 8.8705 54.2903 9.22077 54.6365L13.6999 59.0635ZM14.3333 50.8354L17.5458 54.0105L14.3333 57.1856L11.1208 54.0105L14.3333 50.8354Z" fill="#8C8C8C"/>
<path d="M50.1284 52.4989C50.0263 52.166 49.736 51.9243 49.3876 51.8791L45.5059 51.3762L43.7868 48.2728C43.4724 47.7053 42.53 47.7053 42.2155 48.2728L40.4964 51.3762L36.6148 51.8791C36.2663 51.9243 35.976 52.166 35.8739 52.4989C35.7718 52.8318 35.8748 53.1922 36.1391 53.4215L38.8902 55.8095L38.2461 59.1573C38.1834 59.484 38.3115 59.8187 38.5784 60.0232C38.8454 60.226 39.2055 60.2667 39.5101 60.1224L43.0003 58.4879L46.4922 60.1232C46.6141 60.1808 46.7457 60.2082 46.8756 60.2082C47.07 60.2082 47.2635 60.1454 47.4239 60.0232C47.6909 59.8196 47.819 59.4849 47.7562 59.1573L47.1121 55.8095L49.8632 53.4215C50.1266 53.1922 50.2305 52.8318 50.1284 52.4989ZM45.5444 54.8134C45.3061 55.0197 45.1969 55.3358 45.256 55.6439L45.6663 57.7769L43.3837 56.7082C43.2619 56.6506 43.1311 56.6223 43.0003 56.6223C42.8695 56.6223 42.7387 56.6506 42.6169 56.7082L40.3343 57.7769L40.7446 55.6439C40.8037 55.3358 40.6935 55.0206 40.4561 54.8134L38.806 53.3808L41.179 53.0727C41.4621 53.0364 41.7112 52.8681 41.8482 52.6202L43.0003 50.5413L44.1523 52.6211C44.2894 52.8681 44.5384 53.0373 44.8215 53.0736L47.1946 53.3817L45.5444 54.8134Z" fill="#8C8C8C"/>
<path d="M66.7267 57.4254L71.2059 60.0817C71.3483 60.1658 71.5077 60.2083 71.6672 60.2083C71.8267 60.2083 71.9861 60.1658 72.1286 60.0817L76.6077 57.4254C76.8774 57.266 77.0422 56.9783 77.0422 56.6666V52.2395C77.0422 51.9279 76.8774 51.6401 76.6077 51.4807L72.1286 48.8245C71.8446 48.6571 71.4907 48.6571 71.2067 48.8245L66.7276 51.4807C66.457 51.6401 66.2922 51.9279 66.2922 52.2395V56.6666C66.2922 56.9783 66.457 57.266 66.7267 57.4254ZM68.0839 52.7407L71.6672 50.6157L75.2505 52.7407V56.1646L71.6672 58.2896L68.0839 56.1646V52.7407Z" fill="#8C8C8C"/>
<path d="M70.7708 77.9166C71.2656 77.9166 71.6667 77.5202 71.6667 77.0312C71.6667 76.5422 71.2656 76.1458 70.7708 76.1458C70.2761 76.1458 69.875 76.5422 69.875 77.0312C69.875 77.5202 70.2761 77.9166 70.7708 77.9166Z" fill="#8C8C8C"/>
<path d="M74.3536 77.9166C74.8484 77.9166 75.2495 77.5202 75.2495 77.0312C75.2495 76.5422 74.8484 76.1458 74.3536 76.1458C73.8589 76.1458 73.4578 76.5422 73.4578 77.0312C73.4578 77.5202 73.8589 77.9166 74.3536 77.9166Z" fill="#8C8C8C"/>
<path d="M77.9381 77.9166C78.4328 77.9166 78.8339 77.5202 78.8339 77.0312C78.8339 76.5422 78.4328 76.1458 77.9381 76.1458C77.4433 76.1458 77.0422 76.5422 77.0422 77.0312C77.0422 77.5202 77.4433 77.9166 77.9381 77.9166Z" fill="#8C8C8C"/>
<path d="M54.6458 13.2813C55.1406 13.2813 55.5417 12.8849 55.5417 12.3959C55.5417 11.9069 55.1406 11.5105 54.6458 11.5105C54.1511 11.5105 53.75 11.9069 53.75 12.3959C53.75 12.8849 54.1511 13.2813 54.6458 13.2813Z" fill="#8C8C8C"/>
</svg>
