<svg width="16" height="16" viewBox="0 0 16 16" fill="none" xmlns="http://www.w3.org/2000/svg">
<path d="M11.4286 2.85718H1.71428C0.767511 2.85718 0 3.62469 0 4.57146V14.2857C0 15.2325 0.767511 16 1.71428 16H11.4286C12.3753 16 13.1428 15.2325 13.1428 14.2857V4.57146C13.1428 3.62469 12.3753 2.85718 11.4286 2.85718ZM12 14.2858C12 14.6014 11.7442 14.8572 11.4286 14.8572H1.71428C1.39868 14.8572 1.14285 14.6014 1.14285 14.2858V4.57146C1.14285 4.25586 1.39868 4.00002 1.71428 4.00002H11.4286C11.7442 4.00002 12 4.25586 12 4.57146V14.2858Z" fill="#595959"/>
<path d="M14.2861 0H4.00039C3.05362 0 2.28611 0.767511 2.28611 1.71428C2.28611 2.02989 2.54195 2.28572 2.85755 2.28572C3.17315 2.28572 3.42896 2.02989 3.42896 1.71428C3.42896 1.39868 3.68479 1.14285 4.00039 1.14285H14.2861C14.6017 1.14285 14.8575 1.39868 14.8575 1.71428V12C14.8575 12.3156 14.6017 12.5714 14.2861 12.5714C13.9705 12.5714 13.7147 12.8273 13.7147 13.1429C13.7147 13.4585 13.9705 13.7143 14.2861 13.7143C15.2329 13.7143 16.0004 12.9468 16.0004 12V1.71428C16.0004 0.767511 15.2329 0 14.2861 0Z" fill="#595959"/>
</svg>
