<svg width="143" height="96" viewBox="0 0 143 96" fill="none" xmlns="http://www.w3.org/2000/svg">
<path d="M2.96873 93.072C2.44873 93.072 1.94873 93.004 1.46873 92.868C0.988734 92.724 0.612734 92.544 0.340734 92.328L0.820734 91.416C1.10073 91.616 1.44073 91.776 1.84073 91.896C2.24073 92.016 2.64473 92.076 3.05273 92.076C4.06073 92.076 4.56473 91.788 4.56473 91.212C4.56473 91.02 4.49673 90.868 4.36073 90.756C4.22473 90.644 4.05273 90.564 3.84473 90.516C3.64473 90.46 3.35673 90.4 2.98073 90.336C2.46873 90.256 2.04873 90.164 1.72073 90.06C1.40073 89.956 1.12473 89.78 0.892734 89.532C0.660734 89.284 0.544734 88.936 0.544734 88.488C0.544734 87.912 0.784734 87.452 1.26473 87.108C1.74473 86.756 2.38873 86.58 3.19673 86.58C3.62073 86.58 4.04473 86.632 4.46873 86.736C4.89273 86.84 5.24073 86.98 5.51273 87.156L5.02073 88.068C4.50073 87.732 3.88873 87.564 3.18473 87.564C2.69673 87.564 2.32473 87.644 2.06873 87.804C1.81273 87.964 1.68473 88.176 1.68473 88.44C1.68473 88.648 1.75673 88.812 1.90073 88.932C2.04473 89.052 2.22073 89.14 2.42873 89.196C2.64473 89.252 2.94473 89.316 3.32873 89.388C3.84073 89.476 4.25273 89.572 4.56473 89.676C4.88473 89.772 5.15673 89.94 5.38073 90.18C5.60473 90.42 5.71673 90.756 5.71673 91.188C5.71673 91.764 5.46873 92.224 4.97273 92.568C4.48473 92.904 3.81673 93.072 2.96873 93.072ZM9.88045 93.072C9.24845 93.072 8.68045 92.932 8.17645 92.652C7.67245 92.372 7.27645 91.988 6.98845 91.5C6.70845 91.004 6.56845 90.444 6.56845 89.82C6.56845 89.196 6.70845 88.64 6.98845 88.152C7.27645 87.656 7.67245 87.272 8.17645 87C8.68045 86.72 9.24845 86.58 9.88045 86.58C10.5125 86.58 11.0765 86.72 11.5725 87C12.0765 87.272 12.4685 87.656 12.7485 88.152C13.0365 88.64 13.1805 89.196 13.1805 89.82C13.1805 90.444 13.0365 91.004 12.7485 91.5C12.4685 91.988 12.0765 92.372 11.5725 92.652C11.0765 92.932 10.5125 93.072 9.88045 93.072ZM9.88045 92.064C10.2885 92.064 10.6525 91.972 10.9725 91.788C11.3005 91.596 11.5565 91.332 11.7405 90.996C11.9245 90.652 12.0165 90.26 12.0165 89.82C12.0165 89.38 11.9245 88.992 11.7405 88.656C11.5565 88.312 11.3005 88.048 10.9725 87.864C10.6525 87.68 10.2885 87.588 9.88045 87.588C9.47245 87.588 9.10445 87.68 8.77645 87.864C8.45645 88.048 8.20045 88.312 8.00845 88.656C7.82445 88.992 7.73245 89.38 7.73245 89.82C7.73245 90.26 7.82445 90.652 8.00845 90.996C8.20045 91.332 8.45645 91.596 8.77645 91.788C9.10445 91.972 9.47245 92.064 9.88045 92.064ZM22.7296 86.58C23.5296 86.58 24.1616 86.812 24.6256 87.276C25.0976 87.74 25.3336 88.428 25.3336 89.34V93H24.1816V89.472C24.1816 88.856 24.0376 88.392 23.7496 88.08C23.4696 87.768 23.0656 87.612 22.5376 87.612C21.9536 87.612 21.4896 87.796 21.1456 88.164C20.8016 88.524 20.6296 89.044 20.6296 89.724V93H19.4776V89.472C19.4776 88.856 19.3336 88.392 19.0456 88.08C18.7656 87.768 18.3616 87.612 17.8336 87.612C17.2496 87.612 16.7856 87.796 16.4416 88.164C16.0976 88.524 15.9256 89.044 15.9256 89.724V93H14.7736V86.64H15.8776V87.588C16.1096 87.26 16.4136 87.012 16.7896 86.844C17.1656 86.668 17.5936 86.58 18.0736 86.58C18.5696 86.58 19.0096 86.68 19.3936 86.88C19.7776 87.08 20.0736 87.372 20.2816 87.756C20.5216 87.388 20.8536 87.1 21.2776 86.892C21.7096 86.684 22.1936 86.58 22.7296 86.58ZM33.2365 89.856C33.2365 89.944 33.2285 90.06 33.2125 90.204H28.0525C28.1245 90.764 28.3685 91.216 28.7845 91.56C29.2085 91.896 29.7325 92.064 30.3565 92.064C31.1165 92.064 31.7285 91.808 32.1925 91.296L32.8285 92.04C32.5405 92.376 32.1805 92.632 31.7485 92.808C31.3245 92.984 30.8485 93.072 30.3205 93.072C29.6485 93.072 29.0525 92.936 28.5325 92.664C28.0125 92.384 27.6085 91.996 27.3205 91.5C27.0405 91.004 26.9005 90.444 26.9005 89.82C26.9005 89.204 27.0365 88.648 27.3085 88.152C27.5885 87.656 27.9685 87.272 28.4485 87C28.9365 86.72 29.4845 86.58 30.0925 86.58C30.7005 86.58 31.2405 86.72 31.7125 87C32.1925 87.272 32.5645 87.656 32.8285 88.152C33.1005 88.648 33.2365 89.216 33.2365 89.856ZM30.0925 87.552C29.5405 87.552 29.0765 87.72 28.7005 88.056C28.3325 88.392 28.1165 88.832 28.0525 89.376H32.1325C32.0685 88.84 31.8485 88.404 31.4725 88.068C31.1045 87.724 30.6445 87.552 30.0925 87.552ZM38.4121 92.628C38.2441 92.772 38.0361 92.884 37.7881 92.964C37.5401 93.036 37.2841 93.072 37.0201 93.072C36.3801 93.072 35.8841 92.9 35.5321 92.556C35.1801 92.212 35.0041 91.72 35.0041 91.08V87.588H33.9241V86.64H35.0041V85.248H36.1561V86.64H37.9801V87.588H36.1561V91.032C36.1561 91.376 36.2401 91.64 36.4081 91.824C36.5841 92.008 36.8321 92.1 37.1521 92.1C37.5041 92.1 37.8041 92 38.0521 91.8L38.4121 92.628ZM43.2009 86.58C44.0089 86.58 44.6489 86.816 45.1209 87.288C45.6009 87.752 45.8409 88.436 45.8409 89.34V93H44.6889V89.472C44.6889 88.856 44.5409 88.392 44.2449 88.08C43.9489 87.768 43.5249 87.612 42.9729 87.612C42.3489 87.612 41.8569 87.796 41.4969 88.164C41.1369 88.524 40.9569 89.044 40.9569 89.724V93H39.8049V84.096H40.9569V87.54C41.1969 87.236 41.5089 87 41.8929 86.832C42.2849 86.664 42.7209 86.58 43.2009 86.58ZM47.9729 86.64H49.1249V93H47.9729V86.64ZM48.5489 85.416C48.3249 85.416 48.1369 85.344 47.9849 85.2C47.8409 85.056 47.7689 84.88 47.7689 84.672C47.7689 84.464 47.8409 84.288 47.9849 84.144C48.1369 83.992 48.3249 83.916 48.5489 83.916C48.7729 83.916 48.9569 83.988 49.1009 84.132C49.2529 84.268 49.3289 84.44 49.3289 84.648C49.3289 84.864 49.2529 85.048 49.1009 85.2C48.9569 85.344 48.7729 85.416 48.5489 85.416ZM54.7204 86.58C55.5284 86.58 56.1684 86.816 56.6404 87.288C57.1204 87.752 57.3604 88.436 57.3604 89.34V93H56.2084V89.472C56.2084 88.856 56.0604 88.392 55.7644 88.08C55.4684 87.768 55.0444 87.612 54.4924 87.612C53.8684 87.612 53.3764 87.796 53.0164 88.164C52.6564 88.524 52.4764 89.044 52.4764 89.724V93H51.3244V86.64H52.4284V87.6C52.6604 87.272 52.9724 87.02 53.3644 86.844C53.7644 86.668 54.2164 86.58 54.7204 86.58ZM65.6115 86.64V92.136C65.6115 93.248 65.3355 94.068 64.7835 94.596C64.2315 95.132 63.4075 95.4 62.3115 95.4C61.7115 95.4 61.1395 95.316 60.5955 95.148C60.0515 94.988 59.6115 94.756 59.2755 94.452L59.8275 93.564C60.1235 93.82 60.4875 94.02 60.9195 94.164C61.3595 94.316 61.8115 94.392 62.2755 94.392C63.0195 94.392 63.5675 94.216 63.9195 93.864C64.2795 93.512 64.4595 92.976 64.4595 92.256V91.752C64.1875 92.08 63.8515 92.328 63.4515 92.496C63.0595 92.656 62.6315 92.736 62.1675 92.736C61.5595 92.736 61.0075 92.608 60.5115 92.352C60.0235 92.088 59.6395 91.724 59.3595 91.26C59.0795 90.788 58.9395 90.252 58.9395 89.652C58.9395 89.052 59.0795 88.52 59.3595 88.056C59.6395 87.584 60.0235 87.22 60.5115 86.964C61.0075 86.708 61.5595 86.58 62.1675 86.58C62.6475 86.58 63.0915 86.668 63.4995 86.844C63.9155 87.02 64.2555 87.28 64.5195 87.624V86.64H65.6115ZM62.2995 91.728C62.7155 91.728 63.0875 91.64 63.4155 91.464C63.7515 91.288 64.0115 91.044 64.1955 90.732C64.3875 90.412 64.4835 90.052 64.4835 89.652C64.4835 89.036 64.2795 88.54 63.8715 88.164C63.4635 87.78 62.9395 87.588 62.2995 87.588C61.6515 87.588 61.1235 87.78 60.7155 88.164C60.3075 88.54 60.1035 89.036 60.1035 89.652C60.1035 90.052 60.1955 90.412 60.3795 90.732C60.5715 91.044 60.8315 91.288 61.1595 91.464C61.4955 91.64 61.8755 91.728 62.2995 91.728ZM80.6594 86.64L78.2834 93H77.1794L75.3434 88.176L73.4834 93H72.3794L70.0154 86.64H71.1074L72.9554 91.704L74.8754 86.64H75.8474L77.7314 91.728L79.6274 86.64H80.6594ZM87.4005 89.856C87.4005 89.944 87.3925 90.06 87.3765 90.204H82.2165C82.2885 90.764 82.5325 91.216 82.9485 91.56C83.3725 91.896 83.8965 92.064 84.5205 92.064C85.2805 92.064 85.8925 91.808 86.3565 91.296L86.9925 92.04C86.7045 92.376 86.3445 92.632 85.9125 92.808C85.4885 92.984 85.0125 93.072 84.4845 93.072C83.8125 93.072 83.2165 92.936 82.6965 92.664C82.1765 92.384 81.7725 91.996 81.4845 91.5C81.2045 91.004 81.0645 90.444 81.0645 89.82C81.0645 89.204 81.2005 88.648 81.4725 88.152C81.7525 87.656 82.1325 87.272 82.6125 87C83.1005 86.72 83.6485 86.58 84.2565 86.58C84.8645 86.58 85.4045 86.72 85.8765 87C86.3565 87.272 86.7285 87.656 86.9925 88.152C87.2645 88.648 87.4005 89.216 87.4005 89.856ZM84.2565 87.552C83.7045 87.552 83.2405 87.72 82.8645 88.056C82.4965 88.392 82.2805 88.832 82.2165 89.376H86.2965C86.2325 88.84 86.0125 88.404 85.6365 88.068C85.2685 87.724 84.8085 87.552 84.2565 87.552ZM92.3962 86.58C93.2042 86.58 93.8442 86.816 94.3162 87.288C94.7962 87.752 95.0362 88.436 95.0362 89.34V93H93.8842V89.472C93.8842 88.856 93.7362 88.392 93.4402 88.08C93.1442 87.768 92.7202 87.612 92.1682 87.612C91.5442 87.612 91.0522 87.796 90.6922 88.164C90.3322 88.524 90.1522 89.044 90.1522 89.724V93H89.0002V86.64H90.1042V87.6C90.3362 87.272 90.6482 87.02 91.0402 86.844C91.4402 86.668 91.8922 86.58 92.3962 86.58ZM100.744 92.628C100.576 92.772 100.368 92.884 100.12 92.964C99.8722 93.036 99.6162 93.072 99.3522 93.072C98.7122 93.072 98.2162 92.9 97.8642 92.556C97.5122 92.212 97.3362 91.72 97.3362 91.08V87.588H96.2562V86.64H97.3362V85.248H98.4882V86.64H100.312V87.588H98.4882V91.032C98.4882 91.376 98.5722 91.64 98.7402 91.824C98.9162 92.008 99.1642 92.1 99.4842 92.1C99.8362 92.1 100.136 92 100.384 91.8L100.744 92.628ZM114.984 86.64L112.608 93H111.504L109.668 88.176L107.808 93H106.704L104.34 86.64H105.432L107.28 91.704L109.2 86.64H110.172L112.056 91.728L113.952 86.64H114.984ZM117.257 87.708C117.457 87.34 117.753 87.06 118.145 86.868C118.537 86.676 119.013 86.58 119.573 86.58V87.696C119.509 87.688 119.421 87.684 119.309 87.684C118.685 87.684 118.193 87.872 117.833 88.248C117.481 88.616 117.305 89.144 117.305 89.832V93H116.153V86.64H117.257V87.708ZM123.658 93.072C123.026 93.072 122.458 92.932 121.954 92.652C121.45 92.372 121.054 91.988 120.766 91.5C120.486 91.004 120.346 90.444 120.346 89.82C120.346 89.196 120.486 88.64 120.766 88.152C121.054 87.656 121.45 87.272 121.954 87C122.458 86.72 123.026 86.58 123.658 86.58C124.29 86.58 124.854 86.72 125.35 87C125.854 87.272 126.246 87.656 126.526 88.152C126.814 88.64 126.958 89.196 126.958 89.82C126.958 90.444 126.814 91.004 126.526 91.5C126.246 91.988 125.854 92.372 125.35 92.652C124.854 92.932 124.29 93.072 123.658 93.072ZM123.658 92.064C124.066 92.064 124.43 91.972 124.75 91.788C125.078 91.596 125.334 91.332 125.518 90.996C125.702 90.652 125.794 90.26 125.794 89.82C125.794 89.38 125.702 88.992 125.518 88.656C125.334 88.312 125.078 88.048 124.75 87.864C124.43 87.68 124.066 87.588 123.658 87.588C123.25 87.588 122.882 87.68 122.554 87.864C122.234 88.048 121.978 88.312 121.786 88.656C121.602 88.992 121.51 89.38 121.51 89.82C121.51 90.26 121.602 90.652 121.786 90.996C121.978 91.332 122.234 91.596 122.554 91.788C122.882 91.972 123.25 92.064 123.658 92.064ZM131.947 86.58C132.755 86.58 133.395 86.816 133.867 87.288C134.347 87.752 134.587 88.436 134.587 89.34V93H133.435V89.472C133.435 88.856 133.287 88.392 132.991 88.08C132.695 87.768 132.271 87.612 131.719 87.612C131.095 87.612 130.603 87.796 130.243 88.164C129.883 88.524 129.703 89.044 129.703 89.724V93H128.551V86.64H129.655V87.6C129.887 87.272 130.199 87.02 130.591 86.844C130.991 86.668 131.443 86.58 131.947 86.58ZM142.838 86.64V92.136C142.838 93.248 142.562 94.068 142.01 94.596C141.458 95.132 140.634 95.4 139.538 95.4C138.938 95.4 138.366 95.316 137.822 95.148C137.278 94.988 136.838 94.756 136.502 94.452L137.054 93.564C137.35 93.82 137.714 94.02 138.146 94.164C138.586 94.316 139.038 94.392 139.502 94.392C140.246 94.392 140.794 94.216 141.146 93.864C141.506 93.512 141.686 92.976 141.686 92.256V91.752C141.414 92.08 141.078 92.328 140.678 92.496C140.286 92.656 139.858 92.736 139.394 92.736C138.786 92.736 138.234 92.608 137.738 92.352C137.25 92.088 136.866 91.724 136.586 91.26C136.306 90.788 136.166 90.252 136.166 89.652C136.166 89.052 136.306 88.52 136.586 88.056C136.866 87.584 137.25 87.22 137.738 86.964C138.234 86.708 138.786 86.58 139.394 86.58C139.874 86.58 140.318 86.668 140.726 86.844C141.142 87.02 141.482 87.28 141.746 87.624V86.64H142.838ZM139.526 91.728C139.942 91.728 140.314 91.64 140.642 91.464C140.978 91.288 141.238 91.044 141.422 90.732C141.614 90.412 141.71 90.052 141.71 89.652C141.71 89.036 141.506 88.54 141.098 88.164C140.69 87.78 140.166 87.588 139.526 87.588C138.878 87.588 138.35 87.78 137.942 88.164C137.534 88.54 137.33 89.036 137.33 89.652C137.33 90.052 137.422 90.412 137.606 90.732C137.798 91.044 138.058 91.288 138.386 91.464C138.722 91.64 139.102 91.728 139.526 91.728Z" fill="#C4C4C4"/>
<path d="M57.665 24.6466C62.4426 24.6466 66.33 20.789 66.33 16.0479C66.33 11.3069 62.4426 7.44922 57.665 7.44922C52.8874 7.44922 49 11.3069 49 16.0479C49 20.789 52.8862 24.6466 57.665 24.6466ZM57.665 11.0148C60.462 11.0148 62.737 13.2724 62.737 16.0479C62.737 18.8235 60.462 21.0811 57.665 21.0811C54.868 21.0811 52.593 18.8235 52.593 16.0479C52.593 13.2724 54.868 11.0148 57.665 11.0148Z" fill="#C4C4C4"/>
<path d="M96.2041 10.4492H91.094H87.3603L85.8921 14.016L79.1935 30.2803L74.9652 28.4567L64.6437 52.9768L59.5205 50.1504L52.3154 67.4318L50.8281 70.9985H54.5677H96.2029C100.503 70.9985 104 67.5276 104 63.2608V18.187C104 13.9202 100.503 10.4492 96.2041 10.4492ZM100.406 63.262C100.406 65.5621 98.5208 67.433 96.2029 67.433H56.055L61.2307 55.0192L66.3419 57.8397L68.2666 53.2666C68.7909 53.3233 69.3344 53.1507 69.7324 52.7557L87.3377 35.2591C87.6559 34.9433 88.0265 34.9114 88.2207 34.922C88.4138 34.9315 88.7797 35.0001 89.0645 35.3478L100.407 49.2067V63.262H100.406ZM100.406 43.5468L91.8531 33.0961C91.0046 32.0601 89.7473 31.4263 88.4043 31.3577C87.0612 31.2903 85.7443 31.7917 84.7945 32.7366L71.2363 46.2123L76.8029 32.9897L81.0561 34.8239L89.6258 14.016H96.2041C98.522 14.016 100.407 15.8868 100.407 18.187V43.5468H100.406Z" fill="#C4C4C4"/>
<path d="M83.1818 0H46.7974C42.4977 0 39 3.47094 39 7.73778V52.8127C39 57.0299 42.419 60.4677 46.6508 60.5458C46.6997 60.547 46.7486 60.5493 46.7974 60.5493H50.3893L51.8765 56.9826L57.1022 44.4494L62.2135 47.2699L72.6744 22.421L76.9277 24.2552L85.4473 3.56673L86.9155 0H83.1818ZM60.5141 42.4082L55.3909 39.5818L48.1357 56.9826H46.7974C44.4795 56.9826 42.5942 55.1117 42.5942 52.8116V46.306L54.4232 36.319C54.8546 35.9547 55.4851 35.9512 55.92 36.3095L61.2363 40.691L60.5141 42.4082ZM75.0638 19.7116L70.8356 17.8881L62.6854 37.2508L58.2165 33.5682C56.4337 32.0994 53.8596 32.1148 52.0946 33.6049L42.5954 41.6253V7.73778C42.5954 5.43761 44.4807 3.56673 46.7986 3.56673H81.7148L75.0638 19.7116Z" fill="#C4C4C4"/>
</svg>
