<svg width="24" height="24" viewBox="0 0 24 24" fill="none" xmlns="http://www.w3.org/2000/svg">
<g opacity="0.65">
<path fill-rule="evenodd" clip-rule="evenodd" d="M0 12C0 5.37187 5.37187 0 12 0C18.6281 0 24 5.37187 24 12C24 18.6281 18.6281 24 12 24C5.37187 24 0 18.6281 0 12ZM16.0125 2.49609C14.7422 1.95938 13.3922 1.6875 12 1.6875C10.6078 1.6875 9.25781 1.95938 7.98516 2.49844C6.75703 3.01641 5.65312 3.76172 4.70625 4.70859C3.75938 5.65781 3.01641 6.75938 2.49609 7.9875C1.95938 9.25781 1.6875 10.6078 1.6875 12C1.6875 13.3922 1.95938 14.7422 2.49844 16.0148C3.01641 17.243 3.76172 18.3469 4.70859 19.2938C5.65781 20.2406 6.75938 20.9836 7.9875 21.5039C9.25781 22.0406 10.6078 22.3125 12 22.3125C13.3922 22.3125 14.7422 22.0406 16.0148 21.5016C17.243 20.9836 18.3469 20.2383 19.2938 19.2914C20.2406 18.3422 20.9836 17.2406 21.5039 16.0125C22.0406 14.7422 22.3125 13.3922 22.3125 12C22.3125 10.6078 22.0406 9.25781 21.5016 7.98516C20.9836 6.75703 20.2383 5.65312 19.2914 4.70625C18.3422 3.75938 17.2406 3.01641 16.0125 2.49609ZM12 15C11.482 15 11.0625 14.5805 11.0625 14.0625V5.41406C11.0625 4.89609 11.482 4.47656 12 4.47656C12.518 4.47656 12.9375 4.89609 12.9375 5.41406V14.0625C12.9375 14.5805 12.518 15 12 15ZM12 18.6094C11.4175 18.6094 10.9453 18.1372 10.9453 17.5547C10.9453 16.9722 11.4175 16.5 12 16.5C12.5825 16.5 13.0547 16.9722 13.0547 17.5547C13.0547 18.1372 12.5825 18.6094 12 18.6094Z" fill="#8C8C8C"/>
</g>
</svg>
