<?xml version="1.0" encoding="utf-8"?>
<!-- Generator: Adobe Illustrator 24.1.2, SVG Export Plug-In . SVG Version: 6.00 Build 0)  -->
<svg version="1.1" id="Camada_1" xmlns="http://www.w3.org/2000/svg" xmlns:xlink="http://www.w3.org/1999/xlink" x="0px" y="0px"
	 viewBox="0 0 212 192.9" style="enable-background:new 0 0 212 192.9;" xml:space="preserve">
<style type="text/css">
	.st0{fill:#FFFFFF;}
	.st1{fill:#814617;}
	.st2{fill:#F7901D;}
	.st3{fill:#E7811E;}
	.st4{fill:#E7811D;}
	.st5{fill:#C7B5A8;}
	.st6{fill:#E4811D;}
	.st7{fill:#DBC7BA;}
	.st8{fill:#D36C17;}
	.st9{fill:#E78023;}
	.st10{fill:#FCFBFA;}
	.st11{fill:#171717;}
	.st12{fill:#7B716A;}
	.st13{fill:#E78022;}
	.st14{fill:#E6811D;}
	.st15{fill:#FCFBFB;}
</style>
<circle class="st0" cx="106.8" cy="98.2" r="95.7"/>
<path class="st1" d="M44.4,97.6c-1.3-1.6-2.5-3.2-3.8-4.8c-1.1-1.4-3.2-2.5-0.4-4.5c1.3-0.9-0.6-1.9-1.3-2.5
	c-1.7-1.3-2.6-2.3-0.2-3.9c2-1.4,0-1.9-0.8-2.6c-1.1-1-2.9-1.7-0.4-3.4c1.3-0.8,0.6-2.5,0.4-3.8c-0.9-5.4-1.7-10.7-2.9-16
	c-0.7-2.8-0.4-5.6,0.6-8.3c2-5.1,3.7-10.2,5.5-15.4c0.6-1.8,1.3-2.6,3.1-1.3C61.2,42.8,77,55.9,93.6,68c0.9,0.5,1.6,1.3,2,2.2
	c0.4,1.5-0.5,2.4-1.4,3.2C88.1,78.6,82.2,84.1,75.9,89c-1,0.7-2.2,1.3-3.4,1.6c-8.1,2.5-16.4,4.6-24.6,7.1
	C46.8,98.1,45.6,98.5,44.4,97.6z"/>
<path class="st1" d="M169.1,31.8c1.5-1.2,2.2-0.4,2.6,1c2,6.1,4.2,12.2,6,18.3c1,3.4-0.8,6.6-1.2,10c-0.5,3.7-1.2,7.3-2.1,10.9
	c-0.6,2.5-0.8,4.5,2.2,5.7c-1.1,0.9-2,1.7-3,2.4c-1,0.8-1.3,1.5,0.1,2.2c2.6,1.4,1.1,2.5-0.2,3.7c-1,1-3.1,1.9-0.4,3.4
	c1.3,0.7,0.4,1.5-0.2,2.1c-1.6,2-3.3,4.1-4.9,6.1c-1.8,1-3.6,0.1-5.3-0.4c-7.8-2.1-15.5-4.2-23.2-6.6c-4.3-2-7.3-5.6-10.8-8.6
	c-3.9-3.4-8-6.6-11.7-10.3c-0.1-0.7,0.1-1.4,0.6-1.8c10.4-8.3,21.2-16,31.8-23.9c4.4-3.3,8.6-6.6,13.1-9.8
	C164.7,34.6,166.9,33.3,169.1,31.8z"/>
<path class="st2" d="M139.1,89.8c8.8,2.4,17.6,4.8,26.4,7.2c0.9,0.2,1.7,0.4,2.6,0.6c3.2,9.8,6.4,19.6,9.6,29.3c0.3,1,1.2,2,0.4,3.2
	c-7.3-0.2-14.5-0.7-21.7-1.4c-1.5-0.1-2.9-0.3-4.4-0.4c-5.3,0.1-10.6,0-15.9,0.1c-2-0.4-3.5,1.8-5.5,1.4c-1.6-0.9-0.9-2.6-1.4-4.1
	c-1.9,0.7-2.8,1.6-0.8,3.2c0.5,0.4,1.1,0.7,1.4,1.4c-0.5,1.7-1.8,2.3-3.4,2.4c-2.5-1-1.8-3.6-2.7-5.5c-0.7,0.2-0.9,1-1.7,1.1
	c-2-1.4-1.2-2.9-0.1-4.2c1.1-1.4,2.7-2.4,4.5-2.9c0.7-0.2,1.8,0.1,2-0.9c0.2-0.9-0.8-1.3-1.4-1.7s-1.4-0.8-1.6-1.6
	c1.8-2,4.1-2.3,6.5-2.3c1.5,0.8-0.4,2.7,1.4,3.6c0.7-0.9,0-2.6,1.3-3.3c1.8,2.1,2,6.3,0.6,9.7c3.5-7.2,7.2-14.3,10.7-21.4
	c0.2-0.5,0.4-0.9,0.5-1.3c-0.8-3.5-3.9-5.5-5.7-8.2C139.9,92.5,138.5,91.6,139.1,89.8z"/>
<path class="st2" d="M44.4,97.6c8.8-2.4,17.7-4.9,26.5-7.3c0.7-0.2,1.4-0.3,2-0.4c1.9,1.6,0.1,2.8-0.6,3.9c-1.7,2.5-3.8,4.8-5.1,7.5
	c0.1,0.6,0.2,1.2,0.4,1.8c2.2,4.3,4.5,8.6,6.6,13c0.7,1.3,1.5,2.6,0.9,4.1c-0.3,0.6-0.6,1.2-0.9,1.8c-1.5,4.9-1.8,5.2-7,5.7
	c-0.9,0.1-1.8,0.4-2.7,0.6c-8.5,1.3-17.1,1.2-25.6,2.2c-1.8,0.2-3.8,0.6-5.5-0.9C37.2,118.8,40.8,108.2,44.4,97.6z"/>
<path class="st3" d="M33.7,129.5c9.4-0.3,18.7-1,28-2c1.2-0.1,2.5-0.1,3.7-0.1c0.6-0.3,1.3-0.4,1.9-0.2c-0.2,3-2.9,0.9-4.1,2.3
	c4.2,7.1,8.9,14.1,13.1,21.4c0.1,0.3,0,0.7-0.2,0.9c-10.3,3.3-20.7,6.4-30.9,9.8c-2.2,0.7-3.1,0.7-3.7-1.8
	C39,149.7,36.3,139.6,33.7,129.5z"/>
<path class="st4" d="M152,127.5c8.2,0.7,16.4,1.4,24.6,2c0.5,0.1,1,0.4,1.5,0.7c-2.6,10-5.2,20-7.7,30.1c-0.6,2.2-1.9,1.4-3.1,1
	c-9.8-3.1-19.6-6.3-29.3-9.4c-0.3-0.1-0.5-0.4-0.6-0.7c0-0.3,0-0.7,0.1-1C142,142.4,146.6,134.7,152,127.5z"/>
<path class="st5" d="M135.1,152.7c-6.8,4.9-13.5,9.8-22.5,9.5c-4.5-0.2-9.1-0.1-13.6,0.1c-2.4,0.1-4.3-1.1-6.4-2
	c-4.9-2-10-3.7-14.2-7c0.6-2,2-1.2,3.3-1c3,0.5,5.9,1.5,8.8,2.3c3.6,0.9,3.6,0.9,4.1-2.8c0.1-0.7,0.2-1.3,0.5-1.9
	c0.4-0.6,1-1.2,1.7-1.6c4.9-1.4,9.9-0.5,14.8-0.7c2.9-0.1,5.9-0.6,8.5,1.3c2.5,1.8,0.4,4.2,0.9,6.5c3.3-0.9,6.6-2,10-2.8
	C132.4,152.1,133.8,151.5,135.1,152.7z"/>
<path class="st6" d="M95.4,70.2C78.7,57.7,62,45.1,45.3,32.5c-0.4-0.4-0.7-0.8-1-1.3c12.5,5.2,25.1,10.4,37.6,15.7
	c3.2,1.4,6.7,2.2,10.2,2.2c11.4-0.1,22.7,0,34.1,0c0,1.1-0.9,1.2-1.6,1.4c-10.3,0.3-20.6,0.1-30.9,0.2c-4.4,0-4.5,0.2-2.9,4.4
	c1.2,3,2.5,6.1,3.7,9.1c0.7,1.7,1.7,3.5,1.3,5.5L95.4,70.2z"/>
<path class="st4" d="M124.8,49.7l1.3-0.6c14.2-6,28.5-11.9,43-17.3c-3.7,4-8.5,6.6-12.8,9.9C144.2,50.9,132,60,119.7,69.1
	c-0.6,0.4-1.2,0.7-1.8,1c-0.5-0.5-0.7-1.2-0.5-1.9C119.8,62,121.4,55.5,124.8,49.7z"/>
<path class="st7" d="M95.5,149.9c0,7.1,0,7.1-6.8,5.1c-2.6-0.8-5.2-1.4-7.7-2.2c-0.9-0.2-1.8-0.5-2.5,0.4c-0.8-0.5-1.5-0.9-2.3-1.4
	c0-0.2,0.1-0.4,0.1-0.6c0.1-0.2,0.1-0.3,0.2-0.5c5.8-4.6,12.1-8.5,18.1-12.7c1.1-0.8,2.4-1.1,2.9,0.8c0.5,2.8-0.4,5.4-0.7,8.1
	C96.5,148,96,149,95.5,149.9z"/>
<path class="st7" d="M135.1,152.7c-4.3,0.1-8.3,1.9-12.4,3.1c-3,0.9-2.9-0.3-2.8-2.5c0.1-1.4,1.5-2.7,0.1-4.1
	c-1.8-3.4-1.7-7.2-1.9-11c0.7-1.6,1.9-1,2.8-0.3c5.6,4.4,11.6,8.3,16.8,13.3c0.1,0.2,0.1,0.4,0.2,0.6L135.1,152.7z"/>
<path class="st4" d="M66.1,101.5c1.2-2.7,3.1-5.1,5-7.4c1-1.2,2.3-2.4,1.8-4.3c6.3-3.9,11.6-9.2,17.1-14c1.9-1.7,4.9-2.6,5.4-5.7
	l0.1-0.1c1.7,0.4,1.5,1.8,1.6,3c1,8.3,1.1,16.7,2,25.1c0.2,1.4,0.1,3-1,4.2c-3.3,1.6-6.9,1.1-10.3,0.8c-5.7-0.5-11.5-0.5-17.2-0.5
	C69,102.6,67.5,102.5,66.1,101.5z"/>
<path class="st2" d="M98.2,102.2C97.5,91.8,96.7,81.4,96,71c0-0.3-0.3-0.6-0.5-0.8c-1.7-6-4.5-11.6-6.8-17.3c-1-2.5-0.5-3.2,2-3.1
	c11.3,0.1,22.7,0,34,0.1c-1.2,5.4-3.6,10.4-5.5,15.6c-0.6,1.6-1.4,3.1-1.4,4.8l-0.6,1.2c0.8,1.4,1.1,3,1,4.6
	c-0.8,8.6-0.8,17.3-1.4,25.9c0,0.8,0,1.7,0,2.5c-1.3,4.9-0.1,10-1,14.9c-1.2,1.9-2.3,1.6-3.3-0.1c-0.5-0.9-0.5-2.3-2.3-2.4
	c0.3,1.7,1.4,3.1,3,3.8c3.1,1.5,3.2,3.9,2.3,6.6c-0.3,1.1-0.6,2-0.1,3.2c0.8,2.1,0,3.3-2.4,3.2c-1-0.1-2,0-3,0.2
	c-2.6,0.5-5.2-1-5.5-3.2c-0.4-2.9,1.8-3.2,3.9-3.7c-1.6-0.2-3.1,0.8-4.6,0.5c-0.4,1.7,0.8,3.5-1.1,4.5c-1.1,0.7-2.6,0.4-3.3-0.7
	c-1.5-3.1-0.8-6.4-0.9-9.6c-0.1-2.6,0-5.2,0-7.7c-0.8-3.6-0.7-7.3-0.5-10.9C98.1,102.6,98.1,102.4,98.2,102.2z"/>
<path class="st4" d="M115.9,102.2c0.5-10.3,1-20.6,1.4-30.9c6.7,5,12.6,11,19.1,16.3l2.6,2.1c1.9,3.8,5.1,6.6,7.5,10
	c0.5,0.7,2,1.2,0.7,2.4c-9.2,0.5-18.3,0.5-27.5,1C118.4,103.3,117,103.2,115.9,102.2z"/>
<path class="st2" d="M100.2,131.5c5.8,0.3,1.3-3.8,2.6-5.8c2.3,2.7,5.3-2.1,7.9,0.7c-0.3,1.2-1.4,1.9-2.6,1.6c0,0,0,0,0,0
	c-1.8-0.4-3.2,0.3-2.8,2c0.4,1.6,1.6,3.6,3.8,3.1c1.6-0.4,2.9-0.9,4.5-0.4c1.3,0.4,2.2-0.8,1.5-1.8c-1.2-1.7-0.7-2.8,0-4.5
	c0.7-1.7,1.1-4-1.7-5c-1.4-0.5-2.6-1.5-3.2-2.9c-0.3-0.8-1.9-1.2-1.1-2.5c0.5-0.7,1.3-1,2.1-0.8c1.2,0.2,2,1.2,2.1,2.4
	c0.1,1.5,0.4,2.5,2.1,2.3c1.8,0.9,1.4,2.6,1.6,4.1c0.3,2.2-0.6,4.5,0.5,6.6c1.2,0.5,1.5,2.5,3.3,1.8c2.1-0.9,1.2-2.8,1.4-4.4
	l1.4-2.5c2,1.9,0.8,5,2.7,6.6c-1.5,3.5-4.6,4.7-8.1,5.1c-6.6-1.2-13.4-1.2-20,0.1c-4.6,0-7.7-3.4-11.5-5.2c-2.8-1.3-5.4-3.3-8.6-3.8
	c-3.5-0.5-7.2,0.9-10.5-1h-2c1.1-1.2,2.5-0.5,3.8-0.6c2.6-0.2,4.2-1.7,3.9-4.2c-0.2-1.8,0.8-2,1.9-2.6c2.2,0.2,2.2,2.2,3.3,3.4
	c-0.1-1.9-0.1-3.8-0.1-5.7c0.1-1.9,0.8-3.3,3-3.4c4.7,0.6,9.3,1.9,13.7,3.7c3.2,3.8,3.3,8.8,4.6,13.3
	C99.7,131.9,99.5,132.9,100.2,131.5z"/>
<path class="st8" d="M115.9,102.2c9.3,0.2,18.5-1.2,27.8-0.7c1.2,0.1,2.5-0.5,3.5,0.7l-0.7,0.7c-3,4.4-7,7.7-10.8,11.3
	c-0.4,0.4-1,0.6-1.6,0.5c-2.4-0.6-4.5-2-6.7-3c-3.6-1.8-3.8-1.7-5.5,2c-0.8,1.7-0.8,4.1-3.5,4.3c-2.1-3.4-2.4-7.2-2.5-11.1
	c0-0.9,0.3-1.8-0.3-2.6L115.9,102.2z"/>
<path class="st8" d="M152,127.5c-2.9,6.5-7.4,12-11,18.1c-1,1.7-2.2,3.4-3.3,5c-1.3,0-1.4-1-1.6-1.8c-1.1-6-1.5-12.1-2.1-18.2
	c-0.1-1.1,0.2-2.3,1-3.2L152,127.5z"/>
<path class="st3" d="M135,127.4c0.4,7.8,0.9,15.6,2.7,23.2v0.7c-5.2-2.6-9.1-6.9-13.9-10.1c-1.7-1.1-3.3-2.3-4.9-3.5
	c-0.5-0.1-0.6-0.3-0.3-0.7c2.8-1.1,5.3-2.8,7.5-4.8c1.4-0.2,2.4-1.2,3.4-2c0.1-0.4,0.3-0.6,0.7-0.7
	C132.1,129.5,133.2,127.6,135,127.4z"/>
<path class="st2" d="M122,128.1c2,2,1.4,3.8-0.8,5.1c-2.5,1.4-3.2-0.6-3.9-2.4c-1.2-4.5-0.8-8.8,2.2-12.6c1.7-1.5,3.6-2.3,5.8-1.1
	c1,0.3,1.9,0.7,2.8,1.2c1,0.7,2.1,1.8,1.7,3c-0.4,1.3-1.8,0.6-2.7,0.6C123.4,122.3,121.1,125.1,122,128.1z"/>
<path class="st9" d="M134.3,114.5l12.4-11.6c0.2,2.1-1.5,3.5-2.3,5.2c-2.8,5.9-5.8,11.6-8.9,17.9c-1-3.9,0.6-7.5-1.1-10.8
	c-0.4,0.4-1.1,0.4-1.5,0C132.9,114.1,133.4,114,134.3,114.5z"/>
<path class="st10" d="M134.3,114.5l-1.5,0.6c-0.1,0.3-0.2,0.3-0.5,0.1c-2.4,0.3-4.7,1-6.9,1.9c-1.9,0.1-3.7,0.6-5.3,1.4
	c-0.7,0.3-0.8-0.1-0.8-0.7c0.2-0.3,0.3-0.6,0.5-0.9c1.5-2.5,2-7.4,4.1-7.3C127.4,109.7,131.2,111.9,134.3,114.5z"/>
<path class="st2" d="M130.2,129.5l-0.7,0.7c-2,0.3-2.5-1.7-3.7-2.5c-0.5-0.3-0.3-1.4,0.2-1.4c1.6-0.1,2.2-2.5,4-1.9
	c0.8,0.3,0.4,1.2,0.1,1.8C129.6,127.3,130.5,128.4,130.2,129.5z"/>
<path class="st2" d="M132.3,115.2c0.1-0.1,0.3-0.2,0.5-0.1l1.6,0.1c0,0.6,0,1.1,0,1.7c-0.2,1.1,0.6,2.5-0.6,3.4
	c-0.5,0.4-1.1-0.3-1.3-0.8C131.8,118.1,130.1,116.7,132.3,115.2z"/>
<path class="st8" d="M66.1,101.5c10.7-0.5,21.4,0.8,32.1,0.7l0,0c0.7,4.8-0.6,9.3-1.5,13.9c-0.3,0.7-0.9,1.2-1.6,1.3
	c-2.4-0.8-2.7-3.2-3.6-5c-1-1.9-2.1-2.4-4-1.4c-2.4,1.3-4.9,2.4-7.4,3.3c-1.2,0.5-2.6,0.2-3.4-0.8c-3.4-3.5-7.2-6.6-9.9-10.7
	L66.1,101.5z"/>
<path class="st9" d="M66.8,102.9c3.4,3.3,6.7,6.5,10.1,9.8c0.7,0.7,1.3,2,2.7,1.2c0.6,0.4,1.7,0.1,1.6,1.3c-1.9-0.1-2.2,1-2.2,2.6
	c0.1,2.6,0,5.1,0,8.4l-4.1-6.1c-1.7-4.9-4.5-9.3-6.9-14C67.6,105,66.9,104.1,66.8,102.9z"/>
<path class="st8" d="M67.5,127.5h11.6c0.8,1.1,1.1,2.5,0.8,3.9c-0.8,5.4-1.5,10.8-2.1,16.2c-0.2,1.4-0.7,2.7-1.4,3.8l0,0
	c-2.9-2-3.8-5.5-5.7-8.3c-3.1-4.6-6-9.5-9-14.3C63.5,127.3,65.9,129,67.5,127.5z"/>
<path class="st11" d="M118.7,137c0.1,0.2,0.2,0.5,0.3,0.7l1.1,11.6c-2-1-4.1-0.7-6.2-0.6c-5.7,0.3-11.4-0.7-17.1,0.5
	c-1.7-0.1-0.8-1.3-0.7-2c0.3-3.1,0.7-6.2,1-9.2c0.3-0.3,0-0.7,0.4-1c1.6-1.2,3.7-1.8,5.7-1.6c3.4,0.1,6.8,0.1,10.2,0
	C115.2,135.3,117.1,135.8,118.7,137z"/>
<path class="st12" d="M96,147.2c0.3,0.7-0.2,1.6,0.7,2c-0.2,0.6-0.8,0.9-1.3,0.7C95.5,149,95.3,148,96,147.2z"/>
<path class="st3" d="M97.5,137c-0.1,0.3-0.3,0.7-0.4,1c-2.9,0.6-4.8,2.9-7.1,4.4c-4.6,2.8-8.8,6.4-13.6,9c0.8-6.3,1.4-12.5,2.4-18.8
	c0.2-1.7,0.3-3.4,0.4-5.1C85.4,130.2,91,134.4,97.5,137z"/>
<path class="st13" d="M119.2,117.9l0.8,0.7c-2.3,3.8-2.6,8-2.7,12.3l-1.1,1.5c-0.9-4.2,0.6-8.5-0.9-12.4c0-5.2-0.3-10.5,0.7-15.7
	C117.6,108.7,117.3,113.5,119.2,117.9z"/>
<path class="st9" d="M94.8,117.3l1.3-0.7c1-1.2,0.8-3.7,3.4-3.4c0.3,6.1-0.7,12.3,0.7,18.4v2c-2.6-4.8-2.9-10.3-5.6-15
	C94.4,118,94.4,117.6,94.8,117.3z"/>
<path class="st14" d="M99.5,113.1c-1.7,0.6-1.8,2.7-3.4,3.4c-0.2-4.9,2-9.4,2-14.3c1.4,1.6,0.6,3.5,0.6,5.2
	C98.8,109.4,99,111.3,99.5,113.1z"/>
<path class="st15" d="M94.8,117.3l-0.2,1.2l-13.4-3.4c-0.4-0.6-1.5-0.4-1.6-1.3c2.8-1.2,5.7-2.3,8.3-3.8c2.3-1.3,3.1-0.5,4,1.5
	C92.8,113.6,93.9,115.4,94.8,117.3z"/>
</svg>
