<svg width="129" height="40" viewBox="0 0 129 40" fill="none" xmlns="http://www.w3.org/2000/svg">
<g clip-path="url(#clip0)">
<path d="M16.1464 3.92441e-05C16.1357 -0.00351221 15.9191 0.234435 15.6634 0.529206C15.0064 1.28922 14.511 1.88053 13.8557 2.67606L13.7456 2.80746L13.8078 2.88382C13.8415 2.92644 14.1327 3.26382 14.4559 3.63673C14.7773 4.00963 15.2834 4.60094 15.5817 4.95431C15.8783 5.30591 16.1286 5.59713 16.1375 5.60068C16.1446 5.60423 16.3044 5.42666 16.4909 5.20647C16.6773 4.98628 17.1479 4.43935 17.5332 3.98832C17.9204 3.53728 18.3057 3.0898 18.3891 2.99214L18.5401 2.81456L18.1938 2.4026C16.6099 0.515 16.1819 0.0124693 16.1464 3.92441e-05ZM12.0498 4.9774C12.0427 4.9774 11.9539 5.08394 11.8527 5.21712C11.2205 6.04639 10.6789 6.762 10.4179 7.11537L10.116 7.52379L10.2812 7.69071C10.3717 7.78305 10.9275 8.36193 11.5135 8.97811L12.5807 10.0986L12.9377 9.63158C13.4651 8.94082 13.6977 8.6425 14.1167 8.12398C14.3245 7.8665 14.4914 7.64631 14.4879 7.63744C14.4683 7.57706 12.0835 4.9774 12.0498 4.9774ZM20.2998 4.97917C20.2909 4.97562 19.9287 5.34853 19.4954 5.80666C18.7745 6.56845 17.8404 7.59127 17.8245 7.63566C17.8209 7.64631 17.8919 7.74398 17.979 7.85585C18.0677 7.96772 18.4779 8.49156 18.8917 9.0225C19.3054 9.55344 19.6641 10.0116 19.6908 10.0418L19.7369 10.095L20.7118 9.07577C21.2481 8.51642 21.8056 7.93753 21.953 7.79192C22.1501 7.59482 22.2158 7.51846 22.2052 7.49715C22.1714 7.42612 20.3265 4.98983 20.2998 4.97917ZM16.1411 9.52681C16.134 9.52681 15.9333 9.76298 15.6936 10.0524C14.2677 11.7767 14.1896 11.8743 14.2055 11.8992C14.2144 11.9134 14.4541 12.1922 14.74 12.5225C15.1698 13.0197 15.4912 13.3979 16.0754 14.0993C16.1091 14.1401 16.1393 14.1739 16.1446 14.1739C16.1482 14.1739 16.3542 13.9324 16.6028 13.6376C17.0254 13.1351 17.9275 12.0714 18.0464 11.9382L18.0997 11.8779L17.6806 11.3576C17.0698 10.5976 16.1659 9.52503 16.1411 9.52681ZM8.27284 10.056C8.26751 10.056 8.14499 10.2264 8.00115 10.436C7.47199 11.2049 6.77235 12.2739 6.77235 12.3165C6.77235 12.3254 6.9446 12.494 7.15591 12.6876C7.36722 12.8812 7.93545 13.4156 8.41845 13.872C8.90145 14.3301 9.30276 14.703 9.30809 14.703C9.31341 14.703 9.48033 14.458 9.67921 14.1579C9.87809 13.8596 10.2208 13.3499 10.4428 13.0268L10.8441 12.4408L10.7375 12.3325C10.2332 11.8264 8.31723 10.056 8.27284 10.056ZM24.004 10.0577C23.9969 10.0577 23.8548 10.1803 23.6861 10.3277C22.9421 10.9811 21.4469 12.3946 21.4469 12.4443C21.4469 12.4532 21.7115 12.8474 22.0365 13.3215C22.3597 13.7957 22.6988 14.2929 22.7894 14.4296C22.88 14.5645 22.9599 14.6835 22.967 14.6924C22.9758 14.7013 23.1641 14.5308 23.386 14.3142C24.0661 13.6518 25.0197 12.7604 25.4033 12.4283C25.4654 12.3751 25.5187 12.3236 25.5187 12.3182C25.5205 12.2845 24.0288 10.056 24.004 10.0577ZM12.5239 14.0798C12.5115 14.078 12.373 14.2449 12.2149 14.4527C11.5313 15.3547 10.8956 16.2337 10.9045 16.2692C10.9116 16.2977 12.9341 18.4747 12.943 18.464C12.9465 18.4605 13.0513 18.3095 13.1774 18.1302C13.4473 17.7484 13.8007 17.2619 14.2464 16.667C14.4222 16.4308 14.5713 16.2266 14.5767 16.2124C14.5891 16.1769 12.5825 14.0922 12.5239 14.0798ZM19.8293 14.0815C19.8186 14.078 19.6979 14.1828 19.5611 14.3142C19.0391 14.8131 17.7286 16.1627 17.7286 16.2018C17.7286 16.2089 17.8351 16.3562 17.9647 16.532C18.0944 16.7061 18.4619 17.2121 18.7834 17.6561C19.1048 18.1 19.3747 18.4623 19.3853 18.4623C19.396 18.4605 19.8648 17.9651 20.4277 17.3613L21.4523 16.2639L20.9178 15.5305C20.3016 14.6835 19.8559 14.0904 19.8293 14.0815ZM27.044 14.8309C27.0352 14.8291 26.8807 14.9517 26.7031 15.1026C25.3358 16.271 24.4728 17.0168 24.4568 17.0435C24.4515 17.0523 24.5509 17.2317 24.6752 17.443C24.9576 17.9207 25.3322 18.5795 25.5453 18.9737C25.7353 19.3235 25.7034 19.3093 25.8951 19.1388C26.3497 18.7357 27.4205 17.8408 28.0154 17.3649C28.248 17.1802 28.3137 17.1145 28.3048 17.0896C28.2568 16.9511 27.0778 14.838 27.044 14.8309ZM5.20971 14.8611C5.20083 14.8611 5.06233 15.0937 4.90251 15.3778C4.53138 16.0384 3.94362 17.1216 3.94362 17.1429C3.94362 17.1518 4.04306 17.2388 4.16203 17.3329C4.48699 17.5904 5.01616 18.0325 5.81168 18.7073C6.20234 19.0394 6.5273 19.3111 6.53263 19.3111C6.53795 19.3111 6.68001 19.066 6.84871 18.7659C7.0174 18.4658 7.30329 17.9633 7.48442 17.6508C7.66554 17.3382 7.8076 17.0754 7.79872 17.0665C7.45068 16.738 5.247 14.8611 5.20971 14.8611ZM16.1393 17.9349C16.1322 17.9349 15.9653 18.1231 15.7664 18.3522C15.0472 19.1832 14.7542 19.5224 14.5305 19.7887L14.3014 20.0604L14.5305 20.3197C14.9016 20.7405 15.271 21.1827 15.7202 21.742C16.1233 22.2428 16.1429 22.2659 16.173 22.2304C16.1908 22.2108 16.3915 21.964 16.6187 21.6817C17.0769 21.1152 17.4942 20.6109 17.7801 20.2859C17.8831 20.1687 17.9683 20.0675 17.9683 20.0604C17.9683 20.0391 16.6312 18.4658 16.3222 18.1231C16.2281 18.0201 16.1464 17.9349 16.1393 17.9349ZM9.36136 18.4871C9.35781 18.4871 9.27257 18.615 9.17136 18.7677C8.53742 19.7284 8.01891 20.5878 8.05265 20.6215C8.06685 20.6357 8.26929 20.8222 8.50368 21.0371C9.01509 21.5059 9.48743 21.9533 9.89763 22.36C10.0645 22.5251 10.2084 22.6601 10.2155 22.6601C10.2244 22.6601 10.2954 22.5482 10.3735 22.4097C10.5529 22.0972 11.0075 21.3602 11.2951 20.9181C11.4141 20.7352 11.51 20.5754 11.5064 20.5629C11.494 20.5114 9.39687 18.4818 9.36136 18.4871ZM22.9474 18.4871C22.9421 18.4871 22.7876 18.631 22.6047 18.805C21.3084 20.0373 20.8041 20.5292 20.8024 20.5665C20.8006 20.5789 20.9817 20.8808 21.2037 21.2359C21.4256 21.5911 21.7133 22.0581 21.8447 22.2712C21.9761 22.4843 22.0915 22.6601 22.1004 22.6601C22.1093 22.6601 22.2851 22.4985 22.4911 22.2996C22.6971 22.1007 23.1641 21.6568 23.5299 21.3123C23.8957 20.9678 24.2153 20.6659 24.2402 20.6411L24.2846 20.5967L24.1034 20.2948C23.7074 19.636 22.9705 18.4836 22.9474 18.4871ZM2.7379 19.5685C2.72725 19.5685 2.65267 19.7177 2.57098 19.8988C2.41117 20.254 2.03649 21.1294 1.86247 21.5538C1.80032 21.7047 1.76125 21.8219 1.77191 21.8326C1.78079 21.8415 2.03116 22.0208 2.32593 22.2286C3.00781 22.7116 3.44464 23.0348 3.84773 23.3526C4.02353 23.4911 4.21708 23.6314 4.28101 23.6651C4.34493 23.6989 4.40708 23.7362 4.42129 23.7486C4.45325 23.777 4.43372 23.8161 4.64681 23.294C4.8741 22.7418 5.12625 22.1558 5.26298 21.861C5.31803 21.742 5.36953 21.6266 5.37663 21.6035C5.38728 21.5662 5.34999 21.5307 5.09607 21.3354C4.26858 20.6961 2.76276 19.5685 2.7379 19.5685ZM29.4519 19.5703C29.4413 19.5703 29.237 19.7195 28.9973 19.8988C27.5466 20.9873 26.8309 21.536 26.8203 21.568C26.815 21.5804 26.8594 21.6799 26.9162 21.7864C27.1914 22.3014 27.4667 22.9033 27.6868 23.4698C27.749 23.6261 27.8005 23.7575 27.8023 23.761C27.8094 23.7699 28.0562 23.5888 28.6422 23.1484C29.2193 22.7133 29.887 22.2215 30.2084 21.9942C30.3202 21.9143 30.4179 21.8432 30.4268 21.8361C30.4676 21.7971 29.5052 19.5668 29.4519 19.5703ZM12.8436 21.9107C12.8365 21.9107 12.682 22.1132 12.4991 22.36C12.2292 22.7258 11.7231 23.4236 11.4691 23.7841L11.4194 23.8551L11.5721 24.0096C12.0356 24.4784 12.2931 24.759 12.8134 25.3556C13.1294 25.7179 13.394 26.0162 13.4029 26.0162C13.41 26.0162 13.4828 25.9132 13.5645 25.7889C13.7705 25.4675 14.1434 24.9259 14.4914 24.4411C14.6548 24.2138 14.7897 24.0221 14.7897 24.015C14.788 23.983 12.8737 21.9107 12.8436 21.9107ZM19.4706 21.9107C19.4635 21.9107 19.2521 22.122 19.0018 22.3795C18.7496 22.637 18.3678 23.0419 18.1512 23.2798C17.9363 23.5178 17.6984 23.7806 17.6238 23.8622L17.4871 24.0114L17.8529 24.5317C18.0535 24.8176 18.3625 25.2668 18.5401 25.5296C18.7177 25.7925 18.8686 26.0109 18.8757 26.0162C18.8828 26.0215 19.0337 25.8599 19.2113 25.6575C19.538 25.281 20.4117 24.3417 20.7224 24.0309L20.8947 23.8587L20.8077 23.7273C20.5591 23.3526 19.499 21.9107 19.4706 21.9107ZM25.5222 22.6743C25.5151 22.6654 25.1813 22.9406 24.7782 23.2834C24.1194 23.8463 23.5387 24.3559 23.3186 24.5637L23.2369 24.64L23.6861 25.574C24.2277 26.7016 24.2384 26.7212 24.2668 26.6981C24.2792 26.6874 24.5545 26.4548 24.8794 26.1796C25.4636 25.6859 26.0692 25.1816 26.403 24.9135C26.4971 24.8371 26.5735 24.7679 26.5735 24.759C26.5735 24.711 25.5791 22.74 25.5222 22.6743ZM6.79366 22.6796C6.783 22.6885 6.77057 22.708 6.75104 22.7453C6.47758 23.2478 5.73178 24.7394 5.74243 24.7679C5.74598 24.7767 5.93066 24.9348 6.1544 25.1177C6.61964 25.4977 6.90908 25.7392 7.56077 26.2932C7.8147 26.5098 8.03312 26.6945 8.04554 26.7052C8.06153 26.7194 8.14854 26.5525 8.36695 26.0854C8.53209 25.7356 8.75584 25.2704 8.86771 25.0538C8.9778 24.8353 9.07014 24.6524 9.07014 24.6453C9.07014 24.6258 6.98189 22.8004 6.83095 22.6867C6.81497 22.6743 6.80431 22.6707 6.79366 22.6796ZM0.912456 24.4908C0.901802 24.4908 0.843203 24.6826 0.781053 24.9188C0.536002 25.8368 0.411702 26.4157 0.450768 26.4441C0.463198 26.453 0.670958 26.5667 0.910681 26.6963C1.45938 26.9911 2.49285 27.6286 2.95809 27.9606C3.13211 28.0849 3.11613 28.0956 3.18538 27.7848C3.25997 27.4474 3.418 26.8579 3.53698 26.4708C3.5867 26.3092 3.62576 26.1742 3.62399 26.1725C3.55651 26.1085 0.951522 24.4908 0.912456 24.4908ZM31.3732 24.498C31.3555 24.5015 31.3342 24.521 31.3022 24.5406C31.2614 24.5654 30.9293 24.7696 30.5653 24.9934C29.8852 25.4107 29.0293 25.9505 28.8109 26.0997L28.6884 26.1831L28.7949 26.5933C28.8535 26.8188 28.96 27.2379 29.0293 27.5256C29.0985 27.8115 29.1642 28.0494 29.1749 28.053C29.1856 28.0565 29.5585 27.8257 30.0059 27.5415C30.5316 27.2059 31.0074 26.92 31.3502 26.7318C31.6432 26.572 31.8829 26.4335 31.8829 26.4228C31.8829 26.3749 31.7177 25.6557 31.6147 25.2544C31.4532 24.6098 31.4283 24.4873 31.3732 24.498ZM16.1446 25.5687L15.896 25.8724C15.3615 26.5205 14.6317 27.4758 14.6459 27.5114C14.6512 27.5238 14.8288 27.7564 15.0401 28.0263C15.4255 28.52 15.9457 29.2072 16.0665 29.3794C16.1482 29.4966 16.134 29.5019 16.2725 29.3102C16.5282 28.955 16.965 28.3779 17.2811 27.9766C17.464 27.744 17.6238 27.5398 17.6345 27.522C17.6593 27.4865 17.3876 27.1242 16.6241 26.1671C16.4039 25.8919 16.2086 25.6451 16.1872 25.6167L16.1446 25.5687ZM22.0613 25.6735C22.0542 25.6735 21.969 25.7516 21.8731 25.844C21.0012 26.6839 20.7011 26.9769 20.3442 27.332L19.9322 27.744L20.0281 27.9038C20.3336 28.4205 20.7065 29.1131 20.8911 29.5055C20.9426 29.6156 20.9924 29.7115 21.0012 29.7168C21.0101 29.7221 21.177 29.5659 21.3759 29.3705C21.9992 28.7561 22.5585 28.2163 22.8657 27.9322C23.0291 27.7813 23.1694 27.6499 23.1783 27.641C23.2102 27.6072 22.1111 25.6699 22.0613 25.6735ZM10.2155 25.6735C10.2102 25.6735 10.1196 25.8173 10.0148 25.9913C9.60463 26.6679 9.10565 27.5575 9.10565 27.6126C9.10565 27.625 9.24949 27.7688 9.42528 27.9304C9.84435 28.3158 10.4321 28.8822 10.8281 29.2818C11.0039 29.4576 11.1779 29.6298 11.2152 29.6653L11.2862 29.7292L11.3733 29.557C11.4851 29.3386 11.9948 28.3868 12.1936 28.0281C12.2771 27.8772 12.3446 27.7529 12.3446 27.7493C12.3446 27.728 10.2368 25.6717 10.2155 25.6735ZM4.78176 26.968C4.76933 26.9591 4.73027 27.0337 4.67522 27.1757C4.4568 27.744 4.13895 28.6798 4.15138 28.7153C4.15671 28.7277 4.28278 28.8201 4.43549 28.9213C4.80129 29.1681 5.81168 29.8802 6.2343 30.1892C6.42076 30.3259 6.5788 30.4378 6.5859 30.4378C6.593 30.4378 6.65515 30.2549 6.72441 30.0293C6.79366 29.8038 6.92151 29.4256 7.0103 29.1876C7.09731 28.9497 7.17366 28.7366 7.17722 28.7153C7.18432 28.6833 7.1488 28.6496 7.00319 28.5448C6.90375 28.472 6.593 28.2465 6.31244 28.0441C5.90757 27.7511 4.8812 27.0284 4.78176 26.968ZM27.4826 26.9911C27.4755 26.9911 27.2003 27.1846 26.87 27.4208C26.1136 27.9588 25.0765 28.7295 25.0765 28.7526C25.0765 28.7615 25.1298 28.9142 25.1955 29.0882C25.2612 29.2622 25.3891 29.644 25.4832 29.9352C25.5755 30.2264 25.6554 30.4697 25.659 30.475C25.6643 30.4804 25.8365 30.3596 26.0425 30.2087C26.5628 29.8287 27.3495 29.2729 27.765 28.9941C27.955 28.8662 28.1112 28.7526 28.1112 28.7437C28.1095 28.6567 27.5146 26.9911 27.4826 26.9911ZM18.707 29.0616C18.7017 29.0616 18.6377 29.1326 18.5667 29.2232C18.4957 29.3119 18.1583 29.7221 17.8209 30.1341C17.4835 30.5461 17.1905 30.9065 17.171 30.9332L17.1373 30.9847L17.2758 31.1995C17.4764 31.5103 17.7304 31.9489 17.9647 32.3893C18.0766 32.6006 18.1778 32.787 18.1885 32.803C18.2098 32.8368 18.1761 32.8723 18.5383 32.4301C18.8508 32.0483 19.1456 31.7074 19.5363 31.2723L19.8594 30.9136L19.6304 30.5248C19.2912 29.9388 18.7354 29.0633 18.707 29.0616ZM13.5467 29.1006C13.5396 29.1006 13.4047 29.3013 13.2466 29.5481C12.8063 30.2353 12.3996 30.9048 12.3996 30.9421C12.3996 30.9492 12.5648 31.1374 12.7672 31.3611C13.1809 31.8193 13.4846 32.1709 13.8113 32.5757C13.9338 32.7267 14.0386 32.8527 14.0439 32.8563C14.0493 32.8581 14.2038 32.5988 14.3849 32.2756C14.566 31.9542 14.804 31.5352 14.9158 31.3487L15.1183 31.0078L15.0224 30.8764C14.6122 30.3188 13.5982 29.1006 13.5467 29.1006ZM0.0387994 29.2569C0.0316965 29.2569 0.0192664 29.2977 0.0139393 29.3475C-0.00204226 29.4647 -0.00204226 30.8373 0.0139393 30.9545L0.0245936 31.0433L0.184409 31.0948C0.944419 31.3416 1.80742 31.6737 2.51238 31.9933C2.6065 32.0359 2.68641 32.0696 2.68996 32.0696C2.69351 32.0696 2.70416 31.7607 2.71127 31.3842C2.71837 31.0078 2.72902 30.6562 2.73435 30.6011L2.745 30.5017L2.55323 30.4058C1.59078 29.9334 0.116931 29.2569 0.0387994 29.2569ZM32.2114 29.2569C32.199 29.2569 32.0196 29.3315 31.8101 29.422C31.1939 29.6884 30.1214 30.1927 29.5815 30.4697C29.5105 30.5052 29.5105 30.5088 29.5212 30.5958C29.5567 30.8941 29.5744 31.212 29.578 31.6151C29.5798 31.8672 29.5833 32.0732 29.5869 32.0732C29.5904 32.0732 29.7822 31.9897 30.013 31.8885C30.8299 31.528 31.4869 31.2741 32.0161 31.1179L32.2664 31.0433L32.2789 30.8355C32.3144 30.2549 32.27 29.2551 32.2114 29.2569ZM24.1052 29.4984C24.1017 29.4948 23.956 29.6103 23.7785 29.7523C23.0806 30.3152 21.8003 31.4339 21.8003 31.4819C21.8003 31.489 21.8394 31.592 21.8855 31.7109C22.0525 32.1318 22.3366 32.9895 22.3366 33.0694C22.3366 33.1298 22.3792 33.1049 22.6243 32.8971C23.0717 32.5207 23.9223 31.8175 24.3272 31.4925C24.5403 31.3203 24.7178 31.1782 24.7214 31.1747C24.7409 31.1587 24.1478 29.5517 24.1052 29.4984ZM8.1876 29.5019C8.17872 29.4984 8.17695 29.5019 8.17517 29.5055C8.10414 29.628 7.56432 31.109 7.5732 31.1551C7.57675 31.1694 7.81293 31.3665 8.09704 31.5938C8.67948 32.0554 9.17135 32.4639 9.62061 32.8545C9.78753 33.0001 9.92604 33.1155 9.92781 33.112C9.92959 33.1084 9.97398 32.9682 10.0273 32.7995C10.0805 32.6308 10.2048 32.265 10.3078 31.9844C10.409 31.7038 10.4907 31.473 10.4889 31.4712C10.4872 31.4694 10.3895 31.3789 10.2723 31.2706C9.79996 30.8337 9.17846 30.2957 8.63331 29.8535C8.29592 29.5801 8.21246 29.5126 8.1876 29.5019ZM28.6582 30.9616C28.6511 30.9616 28.6386 30.9634 28.6244 30.9687C28.5658 30.99 28.4486 31.0575 28.2018 31.1978C27.4365 31.6328 26.2183 32.368 26.1526 32.4337C26.1331 32.4532 26.1366 32.5047 26.1668 32.7C26.1864 32.8332 26.2165 33.1031 26.2325 33.3002C26.2485 33.4973 26.268 33.6909 26.2751 33.7299L26.2876 33.8028L26.5557 33.6447C26.9535 33.4085 27.8076 32.9469 28.3545 32.6716C28.6191 32.5384 28.8411 32.4248 28.8446 32.4195C28.8588 32.4053 28.7967 31.7713 28.747 31.4233C28.7221 31.2439 28.6955 31.0646 28.6901 31.0237C28.683 30.9865 28.683 30.9634 28.6582 30.9616ZM3.61333 30.974L3.6009 31.0362C3.54231 31.3469 3.44286 32.1851 3.44286 32.3573V32.455L4.30764 32.9113C4.78354 33.1617 5.35355 33.4689 5.57551 33.595C5.79748 33.7211 5.98748 33.8241 5.99458 33.8241C6.00169 33.8241 6.01767 33.7122 6.0301 33.5737C6.04253 33.4352 6.07627 33.1315 6.10468 32.9007L6.1544 32.4798L6.02299 32.3911C5.42102 31.9791 4.29344 31.3096 3.76072 31.0468L3.61333 30.974ZM16.1411 32.3467L15.9688 32.5988C15.6066 33.1298 15.0277 34.0762 15.0277 34.1384C15.0277 34.1526 15.1165 34.2929 15.2248 34.4527C15.5728 34.9588 16.118 35.8537 16.118 35.9159C16.118 35.9674 16.1642 35.9052 16.2778 35.701C16.4412 35.4045 16.8194 34.7972 17.0556 34.4544C17.1568 34.3071 17.2456 34.1774 17.2545 34.1632C17.2829 34.1153 16.617 33.0179 16.2281 32.471L16.1411 32.3467ZM20.6763 32.5011L20.1862 33.0197C19.9163 33.3055 19.5256 33.7317 19.3143 33.9643L18.9307 34.3905L19.0302 34.6569C19.1048 34.8593 19.3569 35.5962 19.4581 35.9105C19.4635 35.9283 19.6641 35.7312 20.0157 35.3601C20.3176 35.0404 20.7296 34.6178 20.932 34.4189C21.1326 34.2201 21.2978 34.0514 21.2978 34.0425C21.2978 33.991 20.845 32.8598 20.7189 32.5953L20.6763 32.5011ZM11.6041 32.5047L11.5508 32.6183C11.462 32.8066 11.2223 33.3908 11.0945 33.7299L10.9737 34.0496L11.0163 34.0904C11.0394 34.1135 11.2365 34.3088 11.4567 34.5237C11.6751 34.7386 12.0693 35.1434 12.3339 35.4222C12.5985 35.701 12.8151 35.9265 12.8187 35.9247C12.8205 35.9212 12.8418 35.8502 12.8631 35.7632C12.9359 35.4879 13.0851 35.0458 13.2182 34.7137L13.3479 34.3923L13.2875 34.3195C13.1188 34.1117 12.3464 33.2629 12.0001 32.9078L11.6041 32.5047ZM25.2079 33.0197C25.2008 33.0197 24.9629 33.1813 24.677 33.3766C24.0413 33.8116 23.4855 34.2058 23.0611 34.5237L22.7397 34.7634L22.7486 34.8522C22.7539 34.9002 22.7752 35.0813 22.7965 35.2553C22.8178 35.4293 22.8409 35.6744 22.8498 35.8022L22.864 36.0331L23.4375 35.6246C24.1816 35.0955 24.5971 34.8149 25.0197 34.5557L25.3624 34.3444L25.3571 34.2112C25.3464 33.9022 25.2363 33.0161 25.2079 33.0197ZM7.07955 33.0694C7.05114 33.0747 7.04404 33.1227 7.02628 33.2203C6.9659 33.5471 6.93927 33.7832 6.92861 34.0744L6.91618 34.371L7.21983 34.5557C7.86442 34.9463 8.60312 35.4382 9.19444 35.8697C9.34538 35.9798 9.42351 36.026 9.42883 36.0082C9.43239 35.994 9.44127 35.8679 9.44659 35.7259C9.45547 35.5146 9.50164 35.0635 9.54071 34.8256C9.55491 34.7368 8.92986 34.2804 7.26245 33.1688C7.15591 33.0996 7.10796 33.0641 7.07955 33.0694ZM14.3298 35.5838C14.3121 35.5749 14.2961 35.6122 14.2411 35.7507C14.1239 36.0419 14.067 36.2018 13.925 36.651C13.7598 37.1749 13.7545 37.0843 13.9711 37.395C14.5767 38.2598 14.9389 39.0021 15.12 39.7479C15.1378 39.8225 15.287 39.8864 15.287 39.8207C15.287 39.8136 15.271 39.739 15.2497 39.6555C15.1236 39.1317 15.1982 38.3433 15.4414 37.5886C15.4681 37.5087 15.4894 37.4288 15.4894 37.4128C15.4894 37.3187 14.74 36.1307 14.3494 35.6069C14.3423 35.5962 14.3352 35.5874 14.3298 35.5838ZM10.5831 35.598C10.5742 35.598 10.5653 35.6175 10.56 35.6424C10.5156 35.8626 10.457 36.4415 10.457 36.6457V36.8179L10.647 36.9706C11.3289 37.5193 12.2505 38.3184 12.5346 38.6096C12.6411 38.7197 12.6464 38.7126 12.6127 38.5422C12.563 38.2953 12.5399 37.8976 12.5612 37.6419L12.5807 37.4093L12.4405 37.2654C11.9788 36.7949 10.6434 35.598 10.5831 35.598ZM17.9701 35.598C17.963 35.598 17.9275 35.6318 17.8919 35.6726C17.6167 35.9976 17.0982 36.7949 16.862 37.2548L16.7839 37.4057L16.8318 37.5513C17.0627 38.2616 17.1444 39.1299 17.0289 39.6538C16.9899 39.8331 16.9934 39.842 17.0929 39.8296C17.1408 39.8242 17.1479 39.8118 17.1976 39.6271C17.3841 38.931 17.7818 38.1639 18.4655 37.1837L18.5063 37.1251L18.4424 36.889C18.3305 36.4663 18.0109 35.598 17.9701 35.598ZM21.6902 35.6087C21.66 35.6193 21.6068 35.6637 21.5055 35.749C20.9941 36.1787 20.4952 36.6315 20.0015 37.1109L19.7103 37.395L19.7085 37.7413C19.7085 38.0609 19.6996 38.2243 19.6623 38.5724L19.6481 38.7002L19.8222 38.5315C20.2323 38.1338 20.7668 37.6721 21.4452 37.1269L21.8412 36.8108L21.827 36.5835C21.8163 36.3864 21.7648 35.9034 21.7311 35.6744C21.7257 35.6229 21.7186 35.598 21.6902 35.6087Z" fill="url(#paint0_linear)"/>
<path d="M71.4711 0.337402C68.6477 0.337402 66.5292 2.02789 66.5292 5.91851V12.4834H64.409C64.1853 12.4834 64.0752 12.6006 64.0752 12.8367V13.7814C64.0752 14.0176 64.1853 14.1348 64.409 14.1348H66.5292V27.8541C66.5292 28.0902 66.6393 28.2074 66.8631 28.2074H67.9782C68.202 28.2074 68.3138 28.0902 68.3138 27.8541V14.1348H73.0692C73.293 14.1348 73.4031 14.0176 73.4031 13.7814V12.8367C73.4031 12.6006 73.2912 12.4834 73.0692 12.4834H68.3121V5.84038C68.3121 2.81276 70.0949 2.225 71.4711 2.225C72.5489 2.225 73.4776 2.61743 74.2217 3.24604C74.4081 3.40408 74.5928 3.40231 74.7047 3.20698L75.225 2.46117C75.3741 2.30313 75.3368 2.06518 75.225 1.94799C74.1453 0.886102 72.8828 0.337402 71.4711 0.337402Z" fill="black"/>
<path d="M105.387 0.337402C102.562 0.337402 100.445 2.02789 100.445 5.91851V12.4834H98.325C98.1013 12.4834 97.9912 12.6006 97.9912 12.8367V13.7814C97.9912 14.0176 98.1013 14.1348 98.325 14.1348H100.445V27.8541C100.445 28.0902 100.555 28.2074 100.779 28.2074H101.894C102.118 28.2074 102.23 28.0902 102.23 27.8541V14.1348H106.985C107.209 14.1348 107.319 14.0176 107.319 13.7814V12.8367C107.319 12.6006 107.207 12.4834 106.985 12.4834H102.228V5.84038C102.228 2.81276 104.011 2.225 105.387 2.225C106.465 2.225 107.394 2.61743 108.138 3.24604C108.324 3.40408 108.509 3.40231 108.621 3.20698L109.141 2.46117C109.29 2.30313 109.253 2.06518 109.141 1.94799C108.061 0.886102 106.799 0.337402 105.387 0.337402Z" fill="black"/>
<path d="M84.7144 5.80109C84.4906 5.80109 84.3805 5.92007 84.3805 6.15624V12.4831H80.2538C80.03 12.4831 79.9199 12.6003 79.9199 12.8365V13.7812C79.9199 14.0174 80.03 14.1346 80.2538 14.1346H84.3805V27.8538C84.3805 28.09 84.4924 28.2072 84.7144 28.2072H85.8278C86.0515 28.2072 86.1634 28.09 86.1634 27.8538V14.1346H90.2884C90.5121 14.1346 90.6222 14.0174 90.6222 13.7812V12.8365C90.6222 12.6003 90.5121 12.4831 90.2884 12.4831H86.1634V6.15446C86.1634 5.91829 86.0497 5.79932 85.8278 5.79932L84.7144 5.80109Z" fill="black"/>
<path d="M50.8318 12.0112C46.7068 12.0112 43.7715 14.6446 43.7715 19.8724V27.8525C43.7715 28.0886 43.8816 28.2058 44.1053 28.2058H45.2223C45.446 28.2058 45.5561 28.0886 45.5561 27.8525V19.8724C45.5561 14.8808 48.5659 13.739 50.8335 13.739C53.0266 13.739 56.1092 14.879 56.1092 19.8724V27.8525C56.1092 28.0886 56.2229 28.2058 56.4448 28.2058H57.56C57.7837 28.2058 57.8938 28.0886 57.8938 27.8525V19.8724C57.892 14.6464 54.9568 12.0112 50.8318 12.0112Z" fill="black"/>
<path d="M113.46 12.5615C113.311 12.5615 113.162 12.7196 113.273 12.8758L119.702 28.2838L115.28 39.0554C115.168 39.2134 115.28 39.4478 115.429 39.4869L116.472 39.9592C116.621 40.0764 116.805 39.9201 116.917 39.7621L128.14 12.8758C128.252 12.7178 128.104 12.5615 127.955 12.5615H126.654C126.467 12.5615 126.282 12.6805 126.171 12.8758L120.707 25.9665L115.244 12.8758C115.133 12.6787 114.948 12.5615 114.761 12.5615H113.46Z" fill="black"/>
</g>
<defs>
<linearGradient id="paint0_linear" x1="16.1732" y1="-0.154574" x2="16.1732" y2="56.7753" gradientUnits="userSpaceOnUse">
<stop stop-color="#FE8464"/>
<stop offset="1" stop-color="#FE6E9A"/>
</linearGradient>
<clipPath id="clip0">
<rect width="128.177" height="40" fill="white"/>
</clipPath>
</defs>
</svg>
