<svg width="33" height="33" viewBox="0 0 33 33" fill="none" xmlns="http://www.w3.org/2000/svg">
<path d="M16.7126 1.93753C16.7043 1.93477 16.5357 2.11994 16.3368 2.34933C15.8255 2.94079 15.4399 3.40096 14.93 4.02004L14.8443 4.1223L14.8927 4.18173C14.9189 4.21489 15.1456 4.47745 15.3971 4.76765C15.6472 5.05785 16.041 5.51802 16.2732 5.79301C16.504 6.06663 16.6988 6.29326 16.7057 6.29602C16.7113 6.29879 16.8356 6.1606 16.9807 5.98924C17.1258 5.81789 17.492 5.39226 17.7919 5.04126C18.0931 4.69026 18.393 4.34203 18.458 4.26602L18.5754 4.12783L18.306 3.80723C17.0733 2.33828 16.7403 1.9472 16.7126 1.93753ZM13.5246 5.81098C13.5191 5.81098 13.45 5.89389 13.3712 5.99753C12.8793 6.64288 12.4578 7.19978 12.2546 7.47478L12.0197 7.79261L12.1482 7.92251C12.2187 7.99437 12.6512 8.44487 13.1073 8.92438L13.9378 9.79636L14.2156 9.43292C14.626 8.89537 14.807 8.66321 15.1331 8.25969C15.2948 8.05932 15.4247 7.88796 15.4219 7.88105C15.4067 7.83407 13.5509 5.81098 13.5246 5.81098ZM19.9449 5.81236C19.938 5.8096 19.6561 6.09979 19.3189 6.45632C18.7578 7.04916 18.031 7.84513 18.0185 7.87967C18.0158 7.88796 18.071 7.96397 18.1387 8.05103C18.2078 8.13809 18.5271 8.54575 18.849 8.95893C19.171 9.37212 19.4502 9.72865 19.4709 9.75214L19.5068 9.7936L20.2655 9.00039C20.6828 8.56509 21.1167 8.1146 21.2314 8.00128C21.3848 7.84789 21.4359 7.78847 21.4277 7.77189C21.4014 7.71661 19.9656 5.82065 19.9449 5.81236ZM16.7085 9.35139C16.703 9.35139 16.5468 9.53518 16.3602 9.76043C15.2506 11.1022 15.1898 11.1783 15.2022 11.1976C15.2091 11.2087 15.3957 11.4256 15.6182 11.6826C15.9526 12.0696 16.2027 12.3639 16.6574 12.9098C16.6836 12.9415 16.7071 12.9678 16.7113 12.9678C16.714 12.9678 16.8743 12.7799 17.0678 12.5505C17.3967 12.1594 18.0987 11.3316 18.1913 11.228L18.2327 11.181L17.9066 10.7761C17.4312 10.1847 16.7278 9.35001 16.7085 9.35139ZM10.5853 9.76319C10.5812 9.76319 10.4858 9.89586 10.3739 10.0589C9.96208 10.6573 9.41762 11.4892 9.41762 11.5223C9.41762 11.5293 9.55166 11.6605 9.71611 11.8112C9.88055 11.9618 10.3228 12.3777 10.6986 12.7329C11.0745 13.0894 11.3868 13.3796 11.391 13.3796C11.3951 13.3796 11.525 13.1889 11.6798 12.9554C11.8345 12.7232 12.1013 12.3266 12.274 12.0751L12.5863 11.6191L12.5034 11.5348C12.1109 11.1409 10.6199 9.76319 10.5853 9.76319ZM22.8275 9.76458C22.822 9.76458 22.7114 9.85993 22.5802 9.97462C22.0011 10.4832 20.8376 11.5831 20.8376 11.6218C20.8376 11.6288 21.0435 11.9355 21.2964 12.3045C21.5479 12.6735 21.8118 13.0604 21.8823 13.1668C21.9528 13.2718 22.015 13.3644 22.0205 13.3713C22.0274 13.3782 22.1739 13.2456 22.3466 13.077C22.8759 12.5615 23.618 11.8678 23.9164 11.6094C23.9648 11.5679 24.0063 11.5279 24.0063 11.5237C24.0076 11.4975 22.8469 9.76319 22.8275 9.76458ZM13.8936 12.8946C13.8839 12.8932 13.7761 13.0231 13.6531 13.1848C13.1211 13.8868 12.6264 14.5708 12.6333 14.5984C12.6388 14.6206 14.2128 16.3148 14.2197 16.3065C14.2225 16.3037 14.304 16.1862 14.4021 16.0467C14.6122 15.7496 14.8872 15.3709 15.234 14.908C15.3708 14.7242 15.4869 14.5653 15.491 14.5542C15.5007 14.5266 13.9392 12.9042 13.8936 12.8946ZM19.5787 12.8959C19.5704 12.8932 19.4764 12.9747 19.37 13.077C18.9637 13.4653 17.9439 14.5155 17.9439 14.5459C17.9439 14.5515 18.0268 14.6662 18.1277 14.803C18.2286 14.9384 18.5146 15.3322 18.7647 15.6777C19.0149 16.0232 19.2249 16.3051 19.2332 16.3051C19.2415 16.3037 19.6063 15.9181 20.0444 15.4483L20.8417 14.5943L20.4258 14.0236C19.9463 13.3644 19.5994 12.9029 19.5787 12.8959ZM25.1933 13.4791C25.1864 13.4777 25.0662 13.5731 24.928 13.6905C23.8639 14.5998 23.1923 15.1802 23.1799 15.2009C23.1757 15.2079 23.2531 15.3474 23.3499 15.5119C23.5696 15.8836 23.8612 16.3963 24.027 16.7031C24.1749 16.9753 24.15 16.9642 24.2992 16.8316C24.653 16.5179 25.4863 15.8214 25.9492 15.4511C26.1302 15.3074 26.1814 15.2562 26.1745 15.2369C26.1371 15.1291 25.2196 13.4846 25.1933 13.4791ZM8.20155 13.5026C8.19464 13.5026 8.08685 13.6836 7.96248 13.9047C7.67367 14.4188 7.21626 15.2617 7.21626 15.2783C7.21626 15.2852 7.29365 15.353 7.38623 15.4262C7.63912 15.6266 8.05093 15.9707 8.67001 16.4958C8.97403 16.7542 9.22692 16.9656 9.23106 16.9656C9.23521 16.9656 9.34576 16.7749 9.47704 16.5414C9.60832 16.3078 9.8308 15.9168 9.97176 15.6736C10.1127 15.4303 10.2233 15.2258 10.2164 15.2189C9.9455 14.9633 8.23057 13.5026 8.20155 13.5026ZM16.7071 15.8947C16.7016 15.8947 16.5717 16.0411 16.4169 16.2194C15.8572 16.8661 15.6292 17.1301 15.4551 17.3374L15.2768 17.5488L15.4551 17.7505C15.7439 18.078 16.0314 18.4221 16.381 18.8574C16.6947 19.2471 16.7099 19.2651 16.7334 19.2375C16.7472 19.2223 16.9033 19.0302 17.0802 18.8105C17.4367 18.3696 17.7615 17.9772 17.984 17.7243C18.0641 17.6331 18.1305 17.5543 18.1305 17.5488C18.1305 17.5322 17.0899 16.3078 16.8494 16.0411C16.7762 15.961 16.7126 15.8947 16.7071 15.8947ZM11.4324 16.3244C11.4297 16.3244 11.3633 16.4239 11.2846 16.5428C10.7912 17.2904 10.3877 17.9592 10.414 17.9855C10.425 17.9965 10.5826 18.1416 10.765 18.3088C11.1629 18.6736 11.5305 19.0219 11.8497 19.3383C11.9796 19.4669 12.0916 19.5719 12.0971 19.5719C12.104 19.5719 12.1593 19.4848 12.2201 19.377C12.3597 19.1338 12.7134 18.5603 12.9373 18.2162C13.0299 18.0739 13.1045 17.9495 13.1017 17.9399C13.0921 17.8998 11.4601 16.3203 11.4324 16.3244ZM22.0053 16.3244C22.0011 16.3244 21.8809 16.4364 21.7386 16.5718C20.7298 17.5308 20.3373 17.9136 20.336 17.9426C20.3346 17.9523 20.4755 18.1872 20.6483 18.4636C20.821 18.74 21.0449 19.1034 21.1471 19.2692C21.2494 19.4351 21.3392 19.5719 21.3461 19.5719C21.353 19.5719 21.4898 19.4461 21.6501 19.2914C21.8104 19.1366 22.1739 18.7911 22.4585 18.523C22.7432 18.2549 22.992 18.02 23.0113 18.0007L23.0458 17.9661L22.9049 17.7312C22.5967 17.2185 22.0232 16.3217 22.0053 16.3244ZM6.27796 17.166C6.26966 17.166 6.21163 17.2821 6.14806 17.423C6.02369 17.6994 5.73211 18.3807 5.59668 18.711C5.54832 18.8284 5.51791 18.9196 5.52621 18.9279C5.53312 18.9348 5.72796 19.0744 5.95736 19.2361C6.488 19.6119 6.82795 19.8635 7.14164 20.1108C7.27845 20.2186 7.42907 20.3278 7.47882 20.354C7.52857 20.3803 7.57694 20.4093 7.58799 20.419C7.61286 20.4411 7.59766 20.4715 7.76349 20.0652C7.94037 19.6354 8.1366 19.1794 8.24301 18.95C8.28585 18.8574 8.32592 18.7676 8.33145 18.7496C8.33974 18.7206 8.31072 18.693 8.11311 18.541C7.46915 18.0435 6.2973 17.166 6.27796 17.166ZM27.0672 17.1674C27.0589 17.1674 26.8999 17.2835 26.7134 17.423C25.5844 18.2701 25.0275 18.6971 25.0192 18.722C25.015 18.7317 25.0496 18.8091 25.0938 18.892C25.308 19.2927 25.5222 19.7612 25.6936 20.202C25.7419 20.3236 25.782 20.4259 25.7834 20.4286C25.7889 20.4356 25.981 20.2946 26.437 19.9519C26.8861 19.6133 27.4057 19.2305 27.6558 19.0537C27.7429 18.9915 27.8189 18.9362 27.8258 18.9307C27.8576 18.9003 27.1086 17.1646 27.0672 17.1674ZM14.1423 18.9887C14.1368 18.9887 14.0166 19.1463 13.8742 19.3383C13.6642 19.623 13.2703 20.1661 13.0727 20.4466L13.034 20.5019L13.1529 20.6221C13.5135 20.9869 13.7139 21.2053 14.1188 21.6696C14.3648 21.9515 14.5707 22.1837 14.5776 22.1837C14.5831 22.1837 14.6398 22.1035 14.7034 22.0068C14.8637 21.7566 15.1539 21.3352 15.4247 20.9579C15.5518 20.781 15.6569 20.6318 15.6569 20.6263C15.6555 20.6014 14.1658 18.9887 14.1423 18.9887ZM19.2995 18.9887C19.294 18.9887 19.1296 19.1532 18.9347 19.3535C18.7385 19.5539 18.4414 19.869 18.2728 20.0542C18.1056 20.2393 17.9204 20.4438 17.8624 20.5074L17.756 20.6235L18.0406 21.0284C18.1968 21.2509 18.4372 21.6005 18.5754 21.805C18.7136 22.0095 18.8311 22.1795 18.8366 22.1837C18.8421 22.1878 18.9596 22.062 19.0978 21.9045C19.352 21.6115 20.0319 20.8805 20.2738 20.6387L20.4078 20.5047L20.3401 20.4024C20.1466 20.1108 19.3216 18.9887 19.2995 18.9887ZM24.009 19.5829C24.0035 19.576 23.7437 19.7902 23.43 20.0569C22.9173 20.495 22.4655 20.8916 22.2941 21.0533L22.2305 21.1127L22.5802 21.8396C23.0016 22.7171 23.0099 22.7323 23.032 22.7143C23.0417 22.706 23.2559 22.525 23.5088 22.3108C23.9634 21.9266 24.4347 21.5342 24.6944 21.3255C24.7677 21.2661 24.8271 21.2122 24.8271 21.2053C24.8271 21.168 24.0532 19.6341 24.009 19.5829ZM9.4342 19.5871C9.42591 19.594 9.41624 19.6092 9.40103 19.6382C9.18822 20.0293 8.60783 21.1901 8.61612 21.2122C8.61888 21.2191 8.7626 21.3421 8.93672 21.4844C9.29877 21.7801 9.52402 21.9681 10.0312 22.3992C10.2288 22.5678 10.3988 22.7115 10.4084 22.7198C10.4209 22.7309 10.4886 22.601 10.6586 22.2375C10.7871 21.9653 10.9612 21.6033 11.0483 21.4347C11.1339 21.2647 11.2058 21.1224 11.2058 21.1168C11.2058 21.1016 9.58068 19.681 9.46322 19.5926C9.45078 19.5829 9.44249 19.5802 9.4342 19.5871ZM4.85737 20.9966C4.84908 20.9966 4.80348 21.1459 4.75511 21.3296C4.56441 22.0441 4.46768 22.4946 4.49808 22.5167C4.50775 22.5236 4.66943 22.612 4.85599 22.7129C5.28299 22.9423 6.08725 23.4384 6.44931 23.6968C6.58474 23.7936 6.5723 23.8019 6.62619 23.56C6.68423 23.2975 6.80722 22.8387 6.89981 22.5374C6.9385 22.4117 6.9689 22.3066 6.96752 22.3053C6.91501 22.2555 4.88777 20.9966 4.85737 20.9966ZM28.5624 21.0021C28.5485 21.0049 28.532 21.0201 28.5071 21.0353C28.4753 21.0546 28.2169 21.2136 27.9336 21.3877C27.4043 21.7124 26.7383 22.1325 26.5683 22.2486L26.4729 22.3136L26.5559 22.6328C26.6015 22.8083 26.6844 23.1344 26.7383 23.3583C26.7922 23.5807 26.8433 23.7659 26.8516 23.7687C26.8599 23.7714 27.1501 23.5918 27.4983 23.3707C27.9073 23.1095 28.2777 22.887 28.5444 22.7406C28.7724 22.6162 28.959 22.5084 28.959 22.5001C28.959 22.4628 28.8305 21.9031 28.7503 21.5908C28.6246 21.0892 28.6052 20.9938 28.5624 21.0021ZM16.7113 21.8354L16.5178 22.0717C16.1018 22.5761 15.5339 23.3196 15.5449 23.3472C15.5491 23.3569 15.6873 23.5379 15.8517 23.748C16.1516 24.1321 16.5565 24.6669 16.6504 24.801C16.714 24.8922 16.703 24.8963 16.8107 24.7471C17.0097 24.4707 17.3497 24.0216 17.5957 23.7093C17.738 23.5282 17.8624 23.3693 17.8707 23.3555C17.89 23.3279 17.6786 23.046 17.0844 22.3011C16.913 22.0869 16.761 21.8948 16.7444 21.8727L16.7113 21.8354ZM21.3157 21.9169C21.3102 21.9169 21.2439 21.9777 21.1692 22.0496C20.4907 22.7032 20.2572 22.9313 19.9794 23.2076L19.6588 23.5282L19.7335 23.6526C19.9711 24.0547 20.2613 24.5937 20.4051 24.8991C20.4451 24.9848 20.4838 25.0594 20.4907 25.0635C20.4976 25.0677 20.6275 24.9461 20.7823 24.794C21.2674 24.3159 21.7026 23.8958 21.9417 23.6747C22.0688 23.5573 22.178 23.455 22.1849 23.4481C22.2098 23.4218 21.3544 21.9142 21.3157 21.9169ZM12.0971 21.9169C12.093 21.9169 12.0225 22.0289 11.941 22.1643C11.6217 22.6908 11.2334 23.3831 11.2334 23.426C11.2334 23.4356 11.3454 23.5476 11.4822 23.6733C11.8083 23.9732 12.2657 24.414 12.5739 24.725C12.7107 24.8618 12.8461 24.9958 12.8751 25.0234L12.9304 25.0732L12.9981 24.9391C13.0852 24.7692 13.4818 24.0285 13.6365 23.7493C13.7015 23.6319 13.754 23.5351 13.754 23.5324C13.754 23.5158 12.1137 21.9156 12.0971 21.9169ZM7.86851 22.9243C7.85884 22.9174 7.82844 22.9755 7.7856 23.086C7.61563 23.5282 7.36827 24.2565 7.37794 24.2841C7.38209 24.2938 7.4802 24.3657 7.59905 24.4444C7.88372 24.6365 8.67001 25.1907 8.9989 25.4311C9.144 25.5375 9.26699 25.6246 9.27252 25.6246C9.27805 25.6246 9.32641 25.4822 9.38031 25.3067C9.4342 25.1312 9.5337 24.8369 9.60279 24.6517C9.6705 24.4665 9.72993 24.3007 9.73269 24.2841C9.73822 24.2593 9.71058 24.233 9.59726 24.1515C9.51988 24.0948 9.27805 23.9193 9.05971 23.7618C8.74464 23.5338 7.9459 22.9713 7.86851 22.9243ZM25.5346 22.9423C25.5291 22.9423 25.3149 23.0929 25.0579 23.2767C24.4692 23.6954 23.6622 24.2952 23.6622 24.3132C23.6622 24.3201 23.7036 24.4389 23.7548 24.5743C23.8059 24.7098 23.9054 25.0069 23.9786 25.2335C24.0505 25.4601 24.1127 25.6494 24.1154 25.6536C24.1196 25.6577 24.2536 25.5638 24.4139 25.4463C24.8188 25.1506 25.431 24.718 25.7544 24.5011C25.9022 24.4016 26.0238 24.3132 26.0238 24.3062C26.0224 24.2385 25.5595 22.9423 25.5346 22.9423ZM18.7053 24.5536C18.7012 24.5536 18.6514 24.6089 18.5962 24.6794C18.5409 24.7484 18.2783 25.0677 18.0158 25.3883C17.7532 25.7089 17.5252 25.9894 17.51 26.0101L17.4837 26.0502L17.5915 26.2174C17.7477 26.4592 17.9453 26.8006 18.1277 27.1433C18.2148 27.3077 18.2935 27.4528 18.3018 27.4652C18.3184 27.4915 18.2921 27.5191 18.574 27.1751C18.8173 26.8779 19.0466 26.6126 19.3507 26.2741L19.6022 25.9949L19.4239 25.6923C19.16 25.2363 18.7274 24.555 18.7053 24.5536ZM14.6895 24.584C14.684 24.584 14.579 24.7402 14.456 24.9322C14.1133 25.467 13.7968 25.988 13.7968 26.017C13.7968 26.0226 13.9254 26.169 14.0829 26.3432C14.4049 26.6997 14.6412 26.9733 14.8954 27.2884C14.9908 27.4058 15.0723 27.5039 15.0765 27.5067C15.0806 27.5081 15.2008 27.3063 15.3418 27.0548C15.4827 26.8047 15.6679 26.4786 15.755 26.3335L15.9125 26.0682L15.8379 25.9659C15.5187 25.532 14.7296 24.584 14.6895 24.584ZM4.17748 24.7056C4.17195 24.7056 4.16228 24.7374 4.15813 24.7761C4.14569 24.8673 4.14569 25.9355 4.15813 26.0267L4.16642 26.0958L4.29079 26.1359C4.88224 26.328 5.55384 26.5864 6.10246 26.8351C6.1757 26.8683 6.23788 26.8945 6.24064 26.8945C6.24341 26.8945 6.2517 26.6541 6.25723 26.3611C6.26276 26.0682 6.27105 25.7945 6.27519 25.7517L6.28348 25.6743L6.13424 25.5997C5.38525 25.2321 4.23828 24.7056 4.17748 24.7056ZM29.2146 24.7056C29.2049 24.7056 29.0654 24.7636 28.9023 24.8341C28.4228 25.0414 27.5881 25.4339 27.168 25.6494C27.1128 25.6771 27.1128 25.6798 27.1211 25.7476C27.1487 25.9797 27.1625 26.2271 27.1653 26.5408C27.1667 26.737 27.1694 26.8973 27.1722 26.8973C27.1749 26.8973 27.3242 26.8323 27.5038 26.7536C28.1395 26.4731 28.6508 26.2754 29.0626 26.1538L29.2575 26.0958L29.2671 25.9341C29.2948 25.4822 29.2602 24.7042 29.2146 24.7056ZM22.9063 24.8935C22.9035 24.8908 22.7902 24.9806 22.652 25.0912C22.1089 25.5292 21.1126 26.3998 21.1126 26.4371C21.1126 26.4426 21.143 26.5228 21.1789 26.6154C21.3088 26.9429 21.5299 27.6103 21.5299 27.6725C21.5299 27.7195 21.5631 27.7002 21.7538 27.5385C22.102 27.2455 22.7639 26.6983 23.079 26.4454C23.2448 26.3114 23.383 26.2008 23.3858 26.1981C23.401 26.1856 22.9394 24.935 22.9063 24.8935ZM10.519 24.8963C10.5121 24.8935 10.5107 24.8963 10.5093 24.8991C10.454 24.9944 10.0339 26.1469 10.0409 26.1829C10.0436 26.1939 10.2274 26.3473 10.4485 26.5242C10.9018 26.8835 11.2846 27.2013 11.6342 27.5053C11.7641 27.6186 11.8719 27.7085 11.8732 27.7057C11.8746 27.7029 11.9092 27.5938 11.9506 27.4625C11.9921 27.3312 12.0888 27.0465 12.169 26.8282C12.2477 26.6099 12.3113 26.4302 12.3099 26.4288C12.3085 26.4274 12.2325 26.357 12.1413 26.2727C11.7737 25.9327 11.2901 25.514 10.8658 25.1699C10.6033 24.9571 10.5383 24.9046 10.519 24.8963ZM26.4495 26.0322C26.4439 26.0322 26.4343 26.0336 26.4232 26.0378C26.3776 26.0543 26.2864 26.1068 26.0943 26.216C25.4987 26.5546 24.5507 27.1267 24.4996 27.1778C24.4844 27.193 24.4872 27.2331 24.5107 27.3851C24.5259 27.4887 24.5493 27.6988 24.5618 27.8522C24.5742 28.0056 24.5894 28.1562 24.595 28.1866L24.6046 28.2433L24.8133 28.1203C25.1228 27.9365 25.7875 27.5772 26.2131 27.363C26.4191 27.2593 26.5918 27.1709 26.5945 27.1668C26.6056 27.1557 26.5572 26.6624 26.5185 26.3915C26.4992 26.2519 26.4785 26.1124 26.4743 26.0806C26.4688 26.0516 26.4688 26.0336 26.4495 26.0322ZM6.95923 26.0419L6.94956 26.0903C6.90395 26.3321 6.82657 26.9844 6.82657 27.1184V27.1944L7.49955 27.5495C7.8699 27.7444 8.31348 27.9835 8.48622 28.0816C8.65896 28.1797 8.80682 28.2598 8.81235 28.2598C8.81788 28.2598 8.83031 28.1728 8.83999 28.065C8.84966 27.9572 8.87592 27.7209 8.89803 27.5413L8.93672 27.2137L8.83446 27.1447C8.366 26.8241 7.48849 26.3031 7.07393 26.0986L6.95923 26.0419ZM16.7085 27.1101L16.5744 27.3063C16.2925 27.7195 15.842 28.4561 15.842 28.5044C15.842 28.5155 15.9111 28.6247 15.9954 28.749C16.2663 29.1429 16.6905 29.8393 16.6905 29.8877C16.6905 29.9278 16.7265 29.8794 16.8149 29.7205C16.942 29.4897 17.2364 29.0171 17.4202 28.7504C17.4989 28.6357 17.568 28.5348 17.5749 28.5238C17.597 28.4865 17.0788 27.6325 16.7762 27.2068L16.7085 27.1101ZM20.2378 27.2303L19.8564 27.6338C19.6464 27.8563 19.3424 28.188 19.1779 28.369L18.8794 28.7007L18.9568 28.9079C19.0149 29.0655 19.2111 29.639 19.2899 29.8836C19.294 29.8974 19.4502 29.744 19.7238 29.4552C19.9587 29.2064 20.2793 28.8775 20.4368 28.7228C20.593 28.568 20.7215 28.4367 20.7215 28.4298C20.7215 28.3897 20.3691 27.5095 20.271 27.3036L20.2378 27.2303ZM13.1777 27.2331L13.1363 27.3215C13.0672 27.468 12.8806 27.9227 12.7811 28.1866L12.6872 28.4353L12.7203 28.4671C12.7383 28.4851 12.8917 28.6371 13.0631 28.8043C13.233 28.9715 13.5398 29.2866 13.7457 29.5035C13.9516 29.7205 14.1202 29.896 14.123 29.8946C14.1243 29.8919 14.1409 29.8366 14.1575 29.7689C14.2142 29.5547 14.3302 29.2106 14.4339 28.9522L14.5348 28.702L14.4878 28.6454C14.3565 28.4837 13.7554 27.8232 13.4859 27.5468L13.1777 27.2331ZM23.7644 27.6338C23.7589 27.6338 23.5737 27.7596 23.3512 27.9116C22.8565 28.2502 22.424 28.5569 22.0937 28.8043L21.8436 28.9909L21.8505 29.06C21.8547 29.0973 21.8712 29.2382 21.8878 29.3736C21.9044 29.5091 21.9224 29.6998 21.9293 29.7993L21.9403 29.9789L22.3867 29.6611C22.9657 29.2493 23.2891 29.0309 23.618 28.8292L23.8847 28.6647L23.8805 28.5611C23.8722 28.3206 23.7865 27.6311 23.7644 27.6338ZM9.65669 27.6725C9.63457 27.6767 9.62905 27.714 9.61523 27.79C9.56824 28.0443 9.54752 28.2281 9.53922 28.4547L9.52955 28.6855L9.76585 28.8292C10.2675 29.1332 10.8423 29.516 11.3025 29.8518C11.42 29.9375 11.4808 29.9734 11.4849 29.9596C11.4877 29.9485 11.4946 29.8504 11.4987 29.7398C11.5057 29.5754 11.5416 29.2244 11.572 29.0392C11.583 28.9701 11.0966 28.615 9.79902 27.7499C9.71611 27.696 9.6788 27.6684 9.65669 27.6725ZM15.299 29.6293C15.2851 29.6224 15.2727 29.6514 15.2299 29.7592C15.1387 29.9858 15.0944 30.1102 14.9839 30.4598C14.8554 30.8675 14.8512 30.797 15.0198 31.0388C15.491 31.7118 15.7729 32.2894 15.9139 32.8698C15.9277 32.9279 16.0438 32.9776 16.0438 32.9265C16.0438 32.921 16.0314 32.8629 16.0148 32.798C15.9167 32.3903 15.9747 31.7768 16.164 31.1895C16.1847 31.1273 16.2013 31.0651 16.2013 31.0526C16.2013 30.9794 15.6182 30.0549 15.3142 29.6473C15.3086 29.639 15.3031 29.6321 15.299 29.6293ZM12.3832 29.6404C12.3763 29.6404 12.3693 29.6556 12.3652 29.6749C12.3306 29.8463 12.285 30.2967 12.285 30.4557V30.5897L12.4329 30.7086C12.9636 31.1356 13.6808 31.7574 13.9019 31.984C13.9848 32.0697 13.9889 32.0642 13.9627 31.9315C13.924 31.7394 13.906 31.4299 13.9226 31.2309L13.9378 31.0499L13.8286 30.9379C13.4693 30.5717 12.4301 29.6404 12.3832 29.6404ZM18.1318 29.6404C18.1263 29.6404 18.0987 29.6666 18.071 29.6984C17.8568 29.9513 17.4533 30.5717 17.2695 30.9297L17.2087 31.0471L17.246 31.1604C17.4257 31.7132 17.4893 32.3889 17.3994 32.7966C17.369 32.9362 17.3718 32.9431 17.4492 32.9334C17.4865 32.9293 17.492 32.9196 17.5307 32.7759C17.6758 32.2342 17.9854 31.6372 18.5174 30.8744L18.5492 30.8288L18.4994 30.645C18.4124 30.3161 18.1636 29.6404 18.1318 29.6404ZM21.0269 29.6486C21.0034 29.6569 20.962 29.6915 20.8832 29.7578C20.4852 30.0922 20.0969 30.4446 19.7127 30.8177L19.4861 31.0388L19.4847 31.3083C19.4847 31.557 19.4778 31.6842 19.4488 31.955L19.4377 32.0545L19.5732 31.9232C19.8924 31.6137 20.3083 31.2544 20.8362 30.8302L21.1444 30.5842L21.1333 30.4073C21.125 30.2539 21.0849 29.878 21.0587 29.6998C21.0545 29.6597 21.049 29.6404 21.0269 29.6486Z" fill="url(#paint0_linear)"/>
<defs>
<linearGradient id="paint0_linear" x1="16.7335" y1="1.81721" x2="16.7335" y2="46.1208" gradientUnits="userSpaceOnUse">
<stop stop-color="#FE8464"/>
<stop offset="1" stop-color="#FE6E9A"/>
</linearGradient>
</defs>
</svg>
