<?xml version="1.0" encoding="utf-8"?>
<!-- Generator: Adobe Illustrator 24.2.1, SVG Export Plug-In . SVG Version: 6.00 Build 0)  -->
<svg version="1.1" id="svg15" xmlns="http://www.w3.org/2000/svg" xmlns:xlink="http://www.w3.org/1999/xlink" x="0px" y="0px"
	 viewBox="0 0 1495 483" style="enable-background:new 0 0 1495 483;" xml:space="preserve">
<style type="text/css">
	.st0{fill:#333333;}
	.st1{fill:url(#SVGID_1_);}
	.st2{fill:url(#SVGID_2_);}
	.st3{fill:url(#SVGID_3_);}
	.st4{fill:url(#SVGID_4_);}
	.st5{fill:url(#SVGID_5_);}
	.st6{fill:url(#SVGID_6_);}
</style>
<path class="st0" d="M753.5,169.8c13.9,13.6,20.8,33.6,20.8,59.9v106.6h-33.6V233.6c0-17.9-4.3-31.5-12.9-40.5
	c-8.6-9.1-21-13.6-37-13.6c-18.2,0-32.5,5.3-43,15.9c-10.5,10.6-15.7,25.8-15.7,45.6v95.4h-33.6V151.1h32.2v28
	c6.8-9.6,15.9-16.9,27.4-22c11.5-5.1,24.6-7.7,39.3-7.7C721,149.4,739.7,156.2,753.5,169.8z"/>
<path class="st0" d="M879.7,135v16.1h53.8v27.6h-53.1v157.6h-33.6V178.7h-31.5v-27.6h31.5v-16.4c0-18.4,5.4-33,16.1-43.7
	c10.7-10.7,25.7-16.1,45.1-16.1c7.1,0,14.1,0.9,21,2.8c6,1.6,11.7,4.4,16.8,8l-10.1,25.5c-7.4-5.7-16.5-8.8-25.9-8.7
	C889.7,102.5,879.7,113.4,879.7,135z"/>
<path class="st0" d="M1108.3,325.5c-5.3,4.4-11.5,7.7-18.2,9.6c-7.2,2.2-14.8,3.3-22.4,3.3c-18.6,0-33.1-5-43.3-15
	c-10.3-10-15.4-24.3-15.4-43V178.7h-31.5v-27.6h31.5v-40.5h33.6v40.5h53.1v27.6h-53.1V279c0,10,2.5,17.7,7.5,23.1
	c5,5.4,12.2,8,21.5,8c10.3,0,19-2.9,26.2-8.7L1108.3,325.5z"/>
<path class="st0" d="M1205.2,135v16.1h53.8v27.6h-53.1v157.6h-33.6V178.7h-31.5v-27.6h31.5v-16.4c0-18.4,5.4-33,16.1-43.7
	c10.7-10.7,25.7-16.1,45.1-16.1c7.1,0,14.1,0.9,21,2.8c6,1.6,11.7,4.4,16.8,8l-10.1,25.5c-7.4-5.7-16.5-8.8-25.9-8.7
	C1215.2,102.5,1205.2,113.4,1205.2,135z"/>
<path class="st0" d="M1495,151.1l-89.8,203.8c-7.9,18.9-17.2,32.2-27.8,39.8c-10.6,7.7-23.4,11.5-38.3,11.5c-9,0-17.9-1.5-26.4-4.4
	c-7.9-2.6-15.2-6.9-21.1-12.8l14.3-25.2c9.6,9.1,20.6,13.6,33.2,13.6c8.2,0,15-2.2,20.4-6.5c5.5-4.3,10.4-11.7,14.9-22.2l5.9-12.9
	l-81.8-184.9h35l64.7,148.2l64-148.2L1495,151.1z"/>
<linearGradient id="SVGID_1_" gradientUnits="userSpaceOnUse" x1="74.0083" y1="-38.6442" x2="74.0083" y2="459.277" gradientTransform="matrix(1 0 0 -1 -23.6185 460.9821)">
	<stop  offset="0" style="stop-color:#FE8464"/>
	<stop  offset="1" style="stop-color:#FE6E9A"/>
</linearGradient>
<path class="st1" d="M43.2,194.3C28.7,213,14.6,231.9,0.9,250.9c-1.5,2.1-1.2,4.9,0.7,6.6c17,15.3,33.6,30.8,49.8,46.5
	c1.6,1.6,4.1,1.6,5.7,0c0.2-0.2,0.3-0.4,0.5-0.6c13.7-18.5,27.7-36.8,42.2-54.9c1.6-2,1.4-4.8-0.3-6.7c-16.3-16.3-33-32.3-50.1-48.2
	c-1.6-1.5-4.2-1.5-5.7,0.2C43.4,194,43.3,194.2,43.2,194.3z"/>
<linearGradient id="SVGID_2_" gradientUnits="userSpaceOnUse" x1="414.344" y1="-38.6442" x2="414.344" y2="459.277" gradientTransform="matrix(1 0 0 -1 -23.6185 460.9821)">
	<stop  offset="0" style="stop-color:#FE8464"/>
	<stop  offset="1" style="stop-color:#FE6E9A"/>
</linearGradient>
<path class="st2" d="M391.9,193.7c-17.1,15.8-33.8,31.9-50.1,48.2c-1.7,1.8-1.9,4.7-0.3,6.7c14.4,18.1,28.5,36.5,42.2,54.9
	c1.3,1.8,3.8,2.3,5.6,1c0.2-0.1,0.4-0.3,0.6-0.5c16.2-15.8,32.8-31.3,49.8-46.5c1.8-1.7,2.1-4.6,0.7-6.6
	c-13.7-19-27.8-37.9-42.3-56.6c-1.3-1.8-3.8-2.2-5.6-0.9C392.1,193.5,392,193.6,391.9,193.7z"/>
<linearGradient id="SVGID_3_" gradientUnits="userSpaceOnUse" x1="244.1763" y1="-38.6442" x2="244.1763" y2="459.277" gradientTransform="matrix(1 0 0 -1 -23.6185 460.9821)">
	<stop  offset="0" style="stop-color:#FE8464"/>
	<stop  offset="1" style="stop-color:#FE6E9A"/>
</linearGradient>
<path class="st3" d="M98.1,346.5c42,42.9,81.8,87.9,119.2,134.8c1.3,1.8,3.9,2.1,5.6,0.8c0.3-0.2,0.6-0.5,0.8-0.8
	c37.5-46.9,77.2-91.9,119.2-134.8c1.7-1.8,1.9-4.5,0.4-6.5c-37.1-49.6-77-97.8-119.8-144.6c-1.5-1.7-4-1.8-5.7-0.4
	c-0.1,0.1-0.3,0.2-0.4,0.4c-42.7,46.8-82.7,95-119.8,144.6C96.3,342,96.5,344.8,98.1,346.5z M217.4,393.5c-14.3-17.1-29-34-44-50.8
	c-1.6-1.9-1.7-4.6-0.2-6.5c14.4-17.7,29.1-35.1,44.2-52.4c1.4-1.7,4-1.9,5.7-0.5c0.2,0.2,0.4,0.3,0.5,0.5
	c15.1,17.3,29.9,34.7,44.2,52.4c1.5,1.9,1.5,4.7-0.2,6.5c-15.1,16.7-29.7,33.7-44,50.8c-1.4,1.7-3.9,2-5.6,0.7
	C217.8,393.9,217.6,393.7,217.4,393.5z"/>
<linearGradient id="SVGID_4_" gradientUnits="userSpaceOnUse" x1="154.021" y1="-33.8134" x2="154.021" y2="464.1077" gradientTransform="matrix(1 0 0 -1 -23.6185 460.9821)">
	<stop  offset="0" style="stop-color:#FE8464"/>
	<stop  offset="1" style="stop-color:#FE6E9A"/>
</linearGradient>
<path class="st4" d="M181.6,144c-16.4-17.1-33.2-33.9-50.3-50.5c-1.6-1.6-4.1-1.6-5.7,0c-0.1,0.1-0.2,0.2-0.2,0.3
	C109.5,111.9,94,130.2,79,148.7c-1.6,2-1.4,5,0.4,6.8c17,16,33.7,32.3,50,48.8c1.5,1.6,4.1,1.7,5.7,0.1c0.1-0.1,0.3-0.3,0.4-0.4
	c15-17.9,30.4-35.7,46.2-53.2C183.4,148.8,183.4,145.9,181.6,144z"/>
<linearGradient id="SVGID_5_" gradientUnits="userSpaceOnUse" x1="334.3313" y1="-34.7795" x2="334.3313" y2="463.1416" gradientTransform="matrix(1 0 0 -1 -23.6185 460.9821)">
	<stop  offset="0" style="stop-color:#FE8464"/>
	<stop  offset="1" style="stop-color:#FE6E9A"/>
</linearGradient>
<path class="st5" d="M311.7,205.2c16.3-16.5,33-32.8,50-48.8c1.9-1.8,2-4.8,0.4-6.8c-15.1-18.5-30.5-36.8-46.4-54.9
	c-1.4-1.7-4-1.9-5.7-0.5c-0.1,0.1-0.2,0.2-0.3,0.2c-17.1,16.6-33.9,33.4-50.3,50.5c-1.8,1.9-1.8,4.8-0.1,6.8
	c15.8,17.5,31.2,35.3,46.2,53.2c1.4,1.7,3.9,2,5.6,0.7C311.4,205.5,311.6,205.4,311.7,205.2z"/>
<linearGradient id="SVGID_6_" gradientUnits="userSpaceOnUse" x1="244.1762" y1="-38.6442" x2="244.1762" y2="459.277" gradientTransform="matrix(1 0 0 -1 -23.6185 460.9821)">
	<stop  offset="0" style="stop-color:#FE8464"/>
	<stop  offset="1" style="stop-color:#FE6E9A"/>
</linearGradient>
<path class="st6" d="M273.9,54.1c-16.4-17.8-33.2-35.5-50.4-52.9c-1.5-1.6-4.1-1.7-5.7-0.1c0,0-0.1,0.1-0.1,0.1
	c-17.2,17.4-34,35-50.4,52.9c-1.8,2-1.7,5,0.2,6.9c17.1,16.8,33.9,33.9,50.2,51.1c1.5,1.6,4,1.8,5.6,0.3c0.1-0.1,0.2-0.2,0.3-0.3
	c16.4-17.3,33.1-34.3,50.2-51.1C275.6,59.1,275.7,56.1,273.9,54.1z"/>
</svg>
