<?xml version="1.0" encoding="utf-8"?>
<!-- Generator: Adobe Illustrator 24.2.1, SVG Export Plug-In . SVG Version: 6.00 Build 0)  -->
<svg version="1.1" id="Layer_1" xmlns="http://www.w3.org/2000/svg" xmlns:xlink="http://www.w3.org/1999/xlink" x="0px" y="0px"
	 viewBox="0 0 33 33" style="enable-background:new 0 0 33 33;" xml:space="preserve">
<style type="text/css">
	.st0{fill-rule:evenodd;clip-rule:evenodd;fill:#595959;stroke:#595959;stroke-width:0.5;stroke-miterlimit:10;}
</style>
<path class="st0" d="M21.5,20.9l4.5,4.5c0.3,0.3,0.3,0.8,0,1.1c-0.2,0.2-0.4,0.2-0.6,0.2c-0.2,0-0.4-0.1-0.6-0.2L20.4,22
	c-1.5,1.2-3.3,1.9-5.4,1.9c-4.7,0-8.4-3.7-8.4-8.3s3.8-8.3,8.4-8.3c4.7,0,8.4,3.7,8.4,8.3C23.4,17.6,22.7,19.4,21.5,20.9z M15,22.3
	c0.9,0,1.8-0.2,2.7-0.5c0.8-0.3,1.5-0.8,2.2-1.5c0.6-0.6,1.1-1.3,1.5-2.2c0.4-0.8,0.5-1.7,0.5-2.6c0-0.9-0.2-1.8-0.5-2.6
	c-0.3-0.8-0.8-1.5-1.5-2.2c-0.6-0.6-1.4-1.1-2.2-1.5C16.8,9,15.9,8.8,15,8.8c-0.9,0-1.8,0.2-2.7,0.5c-0.8,0.3-1.5,0.8-2.2,1.5
	c-0.6,0.6-1.1,1.3-1.5,2.2c-0.4,0.8-0.5,1.7-0.5,2.6c0,0.9,0.2,1.8,0.5,2.6c0.3,0.8,0.8,1.5,1.5,2.2c0.6,0.6,1.4,1.1,2.2,1.5
	C13.2,22.1,14.1,22.3,15,22.3z"/>
</svg>
