<svg width="14" height="12" viewBox="0 0 14 12" fill="none" xmlns="http://www.w3.org/2000/svg">
<path d="M12.3242 5.31108H3.36016C3.35859 5.31108 3.35703 5.30795 3.35859 5.30795L6.73984 2.05795C7.01328 1.79545 7.02266 1.35951 6.75859 1.08608C6.49609 0.812638 6.06016 0.803263 5.78672 1.06733L1.18359 5.49076C1.04922 5.62045 0.972656 5.80014 0.972656 5.98608C0.972656 6.17358 1.04922 6.3517 1.18359 6.48139L5.81172 10.9298C5.94453 11.058 6.11641 11.122 6.28828 11.122C6.46953 11.122 6.64922 11.0517 6.78359 10.9111C7.04609 10.6376 7.03828 10.2017 6.76484 9.9392L3.38359 6.6892C3.38203 6.68764 3.38359 6.68608 3.38516 6.68608H12.3398C12.7055 6.68608 13.0039 6.40014 13.0258 6.04076C13.0492 5.64233 12.7227 5.31108 12.3242 5.31108Z" fill="black"/>
</svg>
