<?xml version="1.0" encoding="utf-8"?>
<!-- Generator: Adobe Illustrator 24.2.1, SVG Export Plug-In . SVG Version: 6.00 Build 0)  -->
<svg version="1.1" id="Layer_1" xmlns="http://www.w3.org/2000/svg" xmlns:xlink="http://www.w3.org/1999/xlink" x="0px" y="0px"
	 viewBox="0 0 21 18" style="enable-background:new 0 0 21 18;" xml:space="preserve">
<style type="text/css">
	.st0{fill:#aCaCaC;}
	.st1{fill:#FFFFFF;}
</style>
<path class="st0" d="M6.3,16.2V3.5L8.7,6C9,6.3,9.6,6.3,9.9,6c0.3-0.3,0.3-0.9,0-1.2L6,0.8c0,0-0.1-0.1-0.1-0.1c0,0,0,0,0,0
	c0,0-0.1,0-0.1-0.1c0,0,0,0-0.1,0c0,0-0.1,0-0.1,0c-0.1,0-0.1,0-0.2,0c-0.1,0-0.1,0-0.2,0c0,0-0.1,0-0.1,0c0,0,0,0-0.1,0
	c0,0-0.1,0-0.1,0.1c0,0,0,0,0,0c0,0-0.1,0.1-0.1,0.1L0.9,4.7C0.7,4.9,0.6,5.1,0.6,5.4S0.7,5.8,0.9,6c0.3,0.3,0.9,0.3,1.2,0l2.4-2.4
	v12.7c0,0.5,0.4,0.9,0.9,0.9S6.3,16.7,6.3,16.2z"/>
<path class="st1" d="M15.8,17.3c0,0,0.1,0,0.1,0c0,0,0,0,0.1,0c0,0,0.1,0,0.1-0.1c0,0,0,0,0,0c0,0,0.1-0.1,0.1-0.1l3.9-3.9
	c0.3-0.3,0.3-0.9,0-1.2c-0.3-0.3-0.9-0.3-1.2,0l-2.4,2.4V1.6c0-0.5-0.4-0.9-0.9-0.9s-0.9,0.4-0.9,0.9v12.7l-2.4-2.4
	c-0.3-0.3-0.9-0.3-1.2,0c-0.2,0.2-0.3,0.4-0.3,0.6c0,0.2,0.1,0.4,0.3,0.6L15,17c0,0,0.1,0.1,0.1,0.1c0,0,0,0,0,0c0,0,0.1,0,0.1,0.1
	c0,0,0,0,0.1,0c0,0,0.1,0,0.1,0c0.1,0,0.1,0,0.2,0C15.6,17.3,15.7,17.3,15.8,17.3z"/>
</svg>
